<?xml version="1.0" standalone="no"?>
<!DOCTYPE svg PUBLIC "-//W3C//DTD SVG 20010904//EN"
 "http://www.w3.org/TR/2001/REC-SVG-20010904/DTD/svg10.dtd">
<svg version="1.0" xmlns="http://www.w3.org/2000/svg"
 width="1200.000000pt" height="1200.000000pt" viewBox="0 0 1200.000000 1200.000000"
 preserveAspectRatio="xMidYMid meet">
<metadata>
Created by potrace 1.14, written by Peter Selinger 2001-2017
</metadata>
<g transform="translate(0.000000,1200.000000) scale(0.100000,-0.100000)"
fill="#000000" stroke="none">
<path d="M5568 10013 c-49 -2 -88 -8 -88 -12 0 -5 -49 -12 -110 -16 -60 -3
-110 -10 -110 -14 0 -5 -54 -14 -120 -21 -84 -8 -120 -16 -120 -25 0 -8 -23
-15 -65 -20 -36 -3 -65 -10 -65 -14 0 -5 -34 -14 -75 -20 -41 -7 -75 -16 -75
-21 0 -4 -22 -11 -50 -15 -27 -4 -50 -11 -50 -15 0 -5 -20 -12 -45 -16 -25 -3
-45 -10 -45 -15 0 -5 -7 -9 -15 -9 -39 0 -115 -23 -115 -35 0 -8 -17 -16 -40
-20 -22 -4 -40 -10 -40 -15 0 -4 -16 -11 -35 -14 -19 -4 -35 -11 -35 -16 0 -4
-22 -14 -50 -21 -27 -7 -50 -16 -50 -20 0 -4 -16 -10 -35 -13 -19 -4 -35 -11
-35 -16 0 -4 -13 -11 -30 -15 -17 -4 -30 -12 -30 -20 0 -7 -16 -16 -36 -19
-19 -4 -37 -13 -40 -21 -3 -8 -19 -17 -35 -20 -16 -4 -29 -10 -29 -15 0 -4
-16 -11 -35 -14 -19 -4 -35 -11 -35 -15 0 -5 -15 -15 -32 -22 -18 -7 -39 -19
-46 -26 -7 -7 -20 -13 -28 -13 -8 0 -14 -7 -14 -15 0 -8 -11 -17 -25 -21 -14
-3 -25 -10 -25 -14 0 -4 -13 -13 -30 -19 -16 -5 -30 -15 -30 -20 0 -6 -7 -11
-15 -11 -9 0 -18 -6 -21 -14 -3 -8 -19 -18 -36 -21 -16 -4 -32 -13 -34 -20 -3
-7 -16 -16 -29 -19 -12 -3 -25 -15 -28 -26 -3 -11 -12 -20 -21 -20 -9 0 -16
-5 -16 -10 0 -6 -11 -15 -25 -20 -14 -5 -25 -14 -25 -20 0 -5 -7 -10 -15 -10
-8 0 -29 -15 -47 -34 -19 -19 -46 -38 -61 -41 -15 -4 -27 -13 -27 -20 0 -18
-110 -125 -129 -125 -6 0 -11 -4 -11 -10 0 -5 -7 -10 -15 -10 -9 0 -18 -7 -22
-16 -3 -9 -25 -35 -49 -59 -24 -23 -44 -48 -44 -54 0 -5 -9 -15 -21 -21 -28
-15 -59 -43 -59 -52 0 -4 -22 -30 -50 -56 -27 -27 -50 -54 -50 -60 0 -7 -5
-12 -11 -12 -16 0 -59 -43 -59 -59 0 -7 -10 -23 -23 -35 -13 -12 -26 -29 -30
-39 -3 -9 -11 -17 -16 -17 -5 0 -14 -13 -20 -30 -5 -16 -17 -30 -25 -30 -8 0
-18 -10 -22 -22 -3 -12 -13 -28 -20 -36 -8 -7 -14 -19 -14 -26 0 -7 -11 -19
-25 -26 -13 -7 -27 -26 -30 -41 -4 -16 -10 -29 -15 -29 -4 0 -11 -11 -14 -25
-4 -14 -13 -25 -20 -25 -8 0 -20 -17 -27 -37 -6 -21 -18 -42 -25 -46 -8 -4
-14 -15 -14 -22 0 -8 -4 -15 -10 -15 -5 0 -10 -9 -10 -20 0 -11 -6 -23 -14
-26 -8 -3 -18 -19 -21 -35 -4 -16 -10 -29 -15 -29 -4 0 -11 -11 -14 -25 -4
-14 -13 -25 -20 -25 -8 0 -17 -15 -20 -35 -4 -19 -10 -35 -14 -35 -10 0 -32
-50 -32 -72 0 -10 -4 -18 -9 -18 -5 0 -12 -13 -16 -30 -4 -16 -10 -30 -14 -30
-5 0 -11 -16 -14 -35 -3 -19 -13 -42 -21 -51 -9 -8 -16 -26 -16 -40 0 -14 -6
-24 -14 -24 -8 0 -16 -16 -20 -40 -3 -22 -10 -40 -15 -40 -5 0 -12 -18 -16
-40 -4 -22 -10 -40 -14 -40 -3 0 -12 -30 -19 -67 -7 -38 -17 -69 -22 -71 -5
-2 -12 -26 -16 -53 -4 -27 -10 -49 -15 -49 -5 0 -9 -11 -9 -25 0 -14 -4 -25
-10 -25 -5 0 -10 -11 -10 -25 0 -14 -4 -25 -9 -25 -4 0 -12 -31 -15 -70 -4
-38 -11 -70 -15 -70 -5 0 -12 -33 -16 -72 -3 -40 -11 -75 -15 -78 -5 -3 -12
-51 -16 -105 -4 -55 -11 -102 -15 -105 -19 -13 -31 -505 -19 -767 6 -142 15
-260 19 -263 5 -3 11 -50 15 -105 4 -55 11 -102 16 -105 4 -3 11 -38 15 -77 4
-40 11 -73 15 -73 5 0 12 -31 16 -70 3 -38 11 -70 15 -70 5 0 9 -9 9 -20 0
-11 5 -20 10 -20 6 0 10 -13 10 -30 0 -16 4 -30 9 -30 5 0 12 -20 15 -45 4
-25 11 -45 15 -45 4 0 13 -31 20 -70 7 -38 17 -70 21 -70 5 0 12 -20 16 -45 3
-25 10 -45 15 -45 5 0 12 -18 15 -40 4 -22 12 -40 19 -40 7 0 16 -16 19 -35 4
-19 11 -35 16 -35 6 0 13 -18 16 -40 4 -22 10 -40 14 -40 5 0 11 -14 15 -30 4
-17 10 -30 14 -30 4 0 14 -18 21 -40 7 -22 16 -40 20 -40 4 0 11 -16 14 -35 4
-20 13 -35 21 -35 7 0 16 -13 20 -30 4 -16 10 -30 15 -30 4 0 11 -11 14 -25 4
-14 10 -25 15 -25 5 0 12 -14 16 -30 4 -17 11 -30 16 -30 5 0 9 -7 9 -15 0 -9
6 -18 14 -21 8 -3 18 -19 21 -36 4 -18 15 -32 26 -35 10 -3 19 -14 19 -24 0
-11 6 -22 14 -25 8 -3 17 -17 21 -31 3 -13 16 -34 29 -46 12 -12 25 -30 29
-39 3 -10 11 -18 17 -18 5 0 10 -9 10 -21 0 -12 8 -23 20 -26 10 -3 22 -15 26
-27 7 -21 9 -25 64 -84 16 -18 32 -43 36 -56 3 -13 17 -30 32 -37 31 -17 62
-45 62 -58 0 -17 79 -102 126 -136 40 -29 54 -45 54 -61 0 -8 5 -14 10 -14 6
0 15 -11 20 -24 4 -13 20 -26 34 -30 27 -7 166 -138 166 -156 0 -5 8 -10 19
-10 10 0 37 -18 59 -40 22 -22 45 -40 51 -40 6 0 11 -4 11 -8 0 -5 12 -15 28
-23 15 -8 41 -29 58 -46 17 -18 34 -33 38 -33 4 0 16 -9 28 -20 12 -11 28 -20
35 -20 7 0 13 -4 13 -9 0 -5 13 -12 29 -16 16 -3 32 -13 35 -21 3 -8 12 -14
20 -14 7 0 16 -7 20 -15 3 -8 11 -15 18 -15 8 0 20 -9 28 -20 8 -11 23 -20 33
-20 9 0 20 -7 23 -15 4 -8 12 -15 19 -15 6 0 22 -9 34 -19 13 -11 37 -23 54
-27 17 -3 37 -13 45 -20 7 -8 20 -14 28 -14 8 0 14 -4 14 -10 0 -5 7 -10 15
-10 8 0 15 -4 15 -10 0 -5 6 -10 14 -10 8 0 21 -6 28 -14 8 -7 29 -17 46 -21
18 -3 32 -11 32 -16 0 -5 6 -9 14 -9 8 0 21 -6 28 -13 7 -8 37 -20 66 -26 28
-7 52 -17 52 -21 0 -5 14 -11 30 -15 17 -4 30 -11 30 -16 0 -5 9 -9 20 -9 11
0 20 -4 20 -10 0 -5 9 -10 20 -10 11 0 20 -4 20 -9 0 -5 27 -14 60 -22 33 -7
60 -16 60 -20 0 -4 23 -10 50 -14 28 -4 50 -11 50 -15 0 -5 20 -12 45 -16 25
-3 45 -10 45 -14 0 -4 34 -13 75 -21 44 -7 75 -18 75 -25 0 -7 26 -14 65 -19
36 -3 65 -10 65 -15 0 -5 32 -12 70 -16 39 -3 70 -10 70 -13 0 -7 173 -31 222
-31 14 0 28 -4 30 -9 2 -6 67 -13 146 -17 78 -4 142 -11 142 -15 0 -5 133 -9
295 -9 162 0 295 4 295 8 0 5 66 12 148 16 81 3 148 11 150 16 2 6 18 10 35
10 57 0 237 23 237 31 0 4 29 11 65 14 36 4 65 11 65 15 0 4 29 11 65 15 44 4
65 11 65 20 0 8 17 16 43 20 92 14 107 18 107 25 0 5 23 11 50 15 28 4 50 10
50 15 0 4 20 11 45 14 25 4 45 11 45 15 0 4 29 14 65 21 36 7 65 17 65 22 0 4
7 8 15 8 8 0 15 5 15 10 0 6 7 10 15 10 8 0 15 4 15 9 0 5 18 11 40 15 22 3
40 10 40 15 0 5 20 14 45 21 25 7 45 17 45 21 0 5 9 9 19 9 11 0 26 7 34 15 8
7 26 17 41 21 14 3 26 10 26 15 0 4 16 11 35 15 19 3 35 10 35 15 0 5 5 9 11
9 6 0 17 6 24 12 35 31 45 37 84 49 22 7 41 16 41 20 0 4 13 10 29 14 16 3 32
13 35 21 3 8 12 14 20 14 8 0 17 9 21 19 3 11 19 22 35 26 17 4 30 11 30 16 0
5 6 9 13 9 7 0 20 9 30 20 9 11 23 20 31 20 8 0 16 7 20 15 3 8 12 15 19 15 8
0 24 9 37 20 13 11 29 20 37 20 7 0 13 4 13 8 0 13 36 52 48 52 5 0 20 11 33
25 13 13 30 25 36 25 7 0 33 20 57 45 25 25 48 45 51 45 7 0 37 27 109 97 29
28 64 55 78 58 17 4 29 16 33 32 5 22 17 36 72 84 10 9 29 30 43 47 14 17 31
31 38 32 6 0 12 7 12 14 0 8 23 37 50 64 28 27 50 54 50 61 0 6 5 11 10 11 6
0 15 11 20 25 5 14 16 25 25 25 8 0 15 6 15 13 0 7 13 24 30 37 16 14 29 30
30 36 0 6 9 21 20 34 11 13 20 29 20 35 0 7 7 15 15 19 8 3 15 12 15 21 0 8 6
15 14 15 7 0 19 14 26 30 7 17 16 30 20 30 4 0 11 11 14 25 4 14 10 25 15 25
5 0 12 13 16 29 3 16 13 32 21 35 8 3 14 12 14 21 0 8 5 15 10 15 6 0 10 6 10
14 0 8 9 17 20 21 12 4 22 19 26 41 3 19 9 34 13 34 4 0 13 16 21 35 8 19 17
35 21 35 4 0 10 13 14 30 4 16 10 30 15 30 4 0 11 15 14 33 3 18 15 39 26 47
11 8 20 25 20 37 0 13 4 23 9 23 5 0 12 11 15 25 4 14 10 25 15 25 5 0 12 19
16 42 4 23 13 47 20 54 7 7 15 31 19 53 3 23 10 41 15 41 5 0 12 20 15 45 5
29 12 45 21 45 8 0 17 15 21 35 3 19 10 35 14 35 5 0 11 23 15 50 4 28 11 50
15 50 5 0 12 25 15 55 4 30 11 55 15 55 5 0 11 23 15 50 4 28 10 50 14 50 4 0
13 47 21 105 8 70 17 105 25 105 9 0 15 29 20 88 4 48 11 89 15 92 5 3 11 64
15 135 4 72 12 133 17 136 13 8 13 660 0 668 -5 3 -13 64 -17 136 -4 71 -10
132 -15 135 -4 3 -11 44 -15 93 -5 57 -11 87 -19 87 -8 0 -17 38 -26 110 -7
61 -17 110 -21 110 -4 0 -11 21 -15 48 -4 26 -11 50 -16 53 -5 3 -11 29 -15
57 -3 29 -9 52 -14 52 -4 0 -10 18 -14 40 -4 22 -11 40 -16 40 -5 0 -9 11 -9
24 0 34 -10 56 -25 56 -7 0 -16 19 -19 45 -4 25 -11 45 -16 45 -5 0 -14 25
-20 55 -6 30 -15 55 -20 55 -4 0 -11 16 -14 35 -4 19 -11 35 -16 35 -6 0 -13
18 -16 40 -4 22 -10 40 -15 40 -5 0 -9 7 -9 15 0 8 -4 15 -10 15 -5 0 -10 7
-10 15 0 8 -4 15 -9 15 -5 0 -12 14 -16 30 -4 17 -11 30 -16 30 -5 0 -9 9 -9
19 0 11 -6 26 -13 33 -7 7 -19 28 -26 46 -7 17 -17 32 -21 32 -5 0 -12 14 -15
32 -4 18 -20 44 -35 58 -15 14 -30 35 -34 48 -4 12 -12 22 -17 22 -5 0 -9 7
-9 15 0 9 -6 18 -14 21 -8 3 -17 21 -20 40 -4 19 -11 34 -17 34 -5 0 -14 11
-19 25 -5 14 -16 25 -25 25 -8 0 -15 7 -15 15 0 8 -9 23 -20 32 -11 10 -20 25
-20 34 0 9 -7 19 -15 23 -8 3 -15 10 -15 16 0 7 -13 25 -30 42 -16 16 -30 34
-30 39 0 5 -5 9 -11 9 -14 0 -38 30 -39 48 0 7 -27 39 -60 72 -33 33 -60 64
-60 70 0 5 -7 10 -15 10 -9 0 -19 8 -22 18 -4 9 -29 38 -55 63 -26 25 -48 49
-48 53 0 15 -36 45 -62 51 -16 4 -28 12 -28 19 0 6 -8 19 -17 27 -10 9 -25 25
-34 35 -8 10 -28 28 -43 39 -45 32 -76 63 -76 75 0 6 -13 16 -29 21 -15 5 -34
21 -41 34 -7 14 -21 25 -30 25 -9 0 -29 11 -44 25 -15 14 -31 25 -37 25 -12 0
-49 37 -49 49 0 5 -11 12 -25 15 -14 4 -25 11 -25 17 0 5 -13 15 -30 20 -16 6
-30 15 -30 20 0 5 -6 9 -13 9 -7 0 -20 9 -30 20 -9 11 -26 20 -37 20 -11 0
-23 6 -26 14 -3 8 -18 18 -34 21 -16 3 -30 14 -33 26 -3 10 -12 19 -21 19 -9
0 -16 4 -16 10 0 5 -20 15 -44 21 -25 6 -47 17 -50 25 -3 8 -12 14 -21 14 -8
0 -15 4 -15 9 0 5 -13 12 -29 16 -16 3 -32 13 -35 21 -3 8 -16 14 -28 14 -39
0 -68 12 -68 26 0 8 -6 14 -14 14 -8 0 -21 6 -28 14 -8 7 -29 17 -46 21 -18 3
-32 10 -32 14 0 5 -20 14 -45 21 -25 7 -45 16 -45 20 0 4 -18 10 -40 14 -22 3
-40 11 -40 16 0 5 -18 13 -40 16 -23 4 -40 12 -40 20 0 8 -23 17 -60 25 -33 6
-60 15 -60 19 0 5 -22 11 -50 15 -27 4 -50 10 -50 15 0 4 -19 10 -42 14 -23 4
-45 11 -48 16 -3 5 -41 15 -83 21 -42 6 -77 15 -77 20 0 4 -31 11 -70 15 -45
4 -70 11 -70 19 0 12 -135 35 -203 35 -15 0 -27 4 -27 9 0 5 -48 12 -107 16
-60 4 -111 12 -114 17 -7 10 -690 19 -861 11z m841 -190 c3 -6 53 -13 111 -17
58 -4 107 -11 108 -17 2 -5 18 -9 35 -9 73 0 207 -23 207 -36 0 -8 22 -15 65
-19 36 -4 65 -11 65 -16 0 -4 23 -11 50 -15 28 -4 50 -10 50 -14 0 -4 32 -12
70 -19 39 -7 70 -17 70 -22 0 -4 23 -11 50 -15 28 -4 50 -10 50 -14 0 -4 16
-11 35 -14 19 -4 35 -13 35 -20 0 -7 26 -18 65 -26 36 -7 65 -17 65 -21 0 -4
14 -10 30 -14 17 -4 30 -11 30 -16 0 -5 18 -12 40 -15 22 -4 40 -10 40 -14 0
-5 14 -11 31 -15 17 -4 33 -13 35 -20 3 -7 21 -16 40 -19 19 -4 34 -13 34 -21
0 -7 14 -16 30 -20 17 -4 30 -11 30 -15 0 -5 16 -12 36 -16 19 -4 38 -12 41
-20 2 -7 18 -16 34 -19 16 -4 29 -10 29 -14 0 -4 16 -13 35 -21 19 -8 35 -17
35 -21 0 -4 13 -10 29 -14 17 -3 31 -14 34 -26 3 -10 12 -19 21 -19 9 0 16 -4
16 -9 0 -5 14 -14 30 -21 17 -7 30 -16 30 -21 0 -5 9 -9 20 -9 11 0 23 -7 26
-15 3 -8 15 -17 26 -21 11 -3 29 -15 39 -25 10 -10 26 -19 34 -19 8 0 15 -6
15 -13 0 -14 35 -47 49 -47 5 0 28 -18 51 -40 23 -22 48 -40 55 -40 7 0 15 -7
19 -15 3 -8 12 -15 21 -15 8 0 15 -6 15 -12 0 -16 84 -98 99 -98 6 0 11 -4 11
-9 0 -5 8 -12 19 -16 21 -6 71 -50 71 -62 0 -4 11 -21 25 -38 14 -16 33 -40
43 -52 9 -12 22 -22 27 -23 15 0 70 -52 78 -73 3 -9 11 -17 17 -17 5 0 10 -6
10 -14 0 -8 11 -24 25 -37 13 -13 25 -30 25 -36 0 -7 5 -13 10 -13 14 0 50
-38 50 -53 0 -7 9 -20 20 -30 11 -9 20 -23 20 -30 0 -8 11 -19 24 -27 15 -8
29 -29 37 -55 9 -29 20 -45 40 -54 15 -7 30 -23 33 -37 4 -14 11 -31 17 -37
41 -50 49 -62 49 -77 0 -10 7 -20 15 -24 8 -3 15 -12 15 -21 0 -8 6 -15 14
-15 8 0 17 -14 21 -31 4 -17 13 -33 21 -36 7 -3 16 -20 20 -39 3 -19 10 -34
14 -34 4 0 11 -11 14 -25 4 -14 10 -25 15 -25 5 0 12 -13 16 -30 4 -16 11 -30
16 -30 5 0 9 -9 9 -20 0 -11 5 -20 10 -20 6 0 10 -7 10 -15 0 -8 4 -15 9 -15
5 0 12 -15 15 -34 4 -19 11 -36 16 -38 5 -2 15 -27 22 -55 7 -29 16 -53 20
-53 4 0 10 -16 14 -35 3 -19 10 -35 15 -35 5 0 12 -18 15 -40 4 -22 10 -40 15
-40 5 0 9 -11 9 -25 0 -14 5 -25 10 -25 6 0 10 -9 10 -20 0 -11 4 -20 9 -20 6
0 13 -20 17 -45 3 -25 10 -45 14 -45 5 0 11 -22 15 -50 4 -27 10 -50 15 -50 4
0 13 -40 19 -90 7 -49 16 -90 21 -90 4 0 11 -36 14 -80 5 -56 11 -80 21 -80 9
0 15 -26 20 -92 4 -51 11 -96 16 -99 5 -3 12 -92 16 -197 3 -106 10 -192 15
-192 4 0 8 -49 8 -110 0 -60 -4 -110 -8 -110 -5 0 -12 -86 -15 -192 -3 -105
-10 -194 -15 -197 -5 -3 -13 -50 -17 -103 -5 -71 -11 -98 -20 -98 -9 0 -15
-23 -20 -75 -4 -41 -11 -75 -15 -75 -4 0 -12 -39 -19 -87 -6 -48 -15 -89 -20
-92 -5 -3 -12 -30 -16 -58 -4 -29 -11 -53 -15 -53 -5 0 -12 -20 -16 -45 -3
-25 -10 -45 -15 -45 -5 0 -9 -9 -9 -20 0 -11 -4 -20 -10 -20 -5 0 -10 -11 -10
-25 0 -14 -4 -25 -10 -25 -5 0 -10 -11 -10 -24 0 -14 -6 -31 -13 -38 -8 -7
-17 -30 -21 -51 -4 -20 -11 -37 -15 -37 -5 0 -11 -18 -15 -39 -3 -22 -13 -47
-22 -55 -8 -9 -18 -33 -21 -53 -4 -21 -14 -45 -25 -54 -10 -9 -18 -21 -18 -28
0 -6 -4 -11 -9 -11 -5 0 -12 -13 -16 -30 -4 -16 -11 -30 -15 -30 -5 0 -12 -16
-16 -35 -3 -19 -10 -35 -15 -35 -5 0 -9 -6 -9 -13 0 -8 -9 -24 -19 -36 -11
-13 -23 -36 -26 -52 -4 -16 -13 -29 -21 -29 -7 0 -16 -11 -20 -25 -3 -14 -10
-25 -15 -25 -5 0 -9 -7 -9 -15 0 -9 -7 -18 -15 -21 -8 -4 -15 -13 -15 -20 0
-8 -6 -17 -14 -20 -8 -3 -17 -16 -20 -30 -4 -13 -11 -24 -16 -24 -6 0 -10 -9
-10 -21 0 -12 -8 -23 -18 -26 -10 -2 -24 -18 -32 -36 -7 -17 -23 -40 -35 -52
-12 -11 -24 -28 -28 -37 -3 -10 -11 -18 -17 -18 -5 0 -10 -6 -10 -13 0 -18
-42 -67 -58 -67 -7 0 -12 -7 -12 -15 0 -8 -11 -25 -25 -37 -14 -12 -25 -28
-25 -35 0 -7 -4 -13 -10 -13 -5 0 -10 -5 -10 -12 0 -11 -75 -88 -87 -88 -8 0
-53 -44 -53 -53 0 -20 -102 -123 -130 -132 -24 -8 -84 -65 -94 -90 -3 -9 -15
-19 -26 -22 -11 -3 -20 -9 -20 -14 0 -5 -5 -9 -11 -9 -11 0 -44 -27 -77 -62
-9 -10 -20 -18 -25 -18 -5 0 -22 -13 -37 -30 -15 -16 -32 -30 -38 -30 -5 0
-20 -11 -33 -25 -13 -13 -28 -25 -33 -25 -5 0 -18 -11 -30 -23 -12 -13 -34
-27 -49 -31 -14 -3 -37 -17 -51 -31 -14 -14 -29 -25 -34 -25 -6 0 -12 -7 -16
-15 -3 -8 -12 -15 -21 -15 -8 0 -15 -4 -15 -9 0 -4 -20 -14 -44 -21 -25 -7
-47 -18 -50 -26 -3 -8 -12 -14 -21 -14 -8 0 -15 -4 -15 -10 0 -5 -15 -12 -34
-16 -19 -3 -37 -12 -40 -20 -3 -8 -12 -14 -21 -14 -8 0 -15 -4 -15 -10 0 -5
-7 -10 -15 -10 -8 0 -15 -4 -15 -9 0 -5 -13 -12 -30 -16 -16 -4 -30 -11 -30
-16 0 -5 -9 -9 -20 -9 -10 0 -23 -7 -27 -15 -5 -8 -32 -21 -61 -27 -29 -7 -52
-16 -52 -20 0 -3 -13 -9 -30 -13 -16 -4 -30 -11 -30 -16 0 -5 -11 -9 -25 -9
-14 0 -25 -4 -25 -9 0 -5 -13 -12 -30 -16 -16 -4 -30 -10 -30 -15 0 -4 -18
-10 -40 -14 -22 -3 -40 -11 -40 -16 0 -5 -22 -12 -50 -16 -27 -4 -50 -10 -50
-14 0 -4 -29 -14 -65 -21 -36 -7 -65 -16 -65 -20 0 -4 -22 -10 -50 -14 -27 -4
-50 -11 -50 -16 0 -5 -11 -9 -25 -9 -14 0 -25 -4 -25 -10 0 -5 -15 -10 -34
-10 -19 0 -36 -4 -38 -9 -1 -6 -51 -15 -110 -22 -60 -7 -108 -16 -108 -19 0
-4 -39 -10 -87 -14 -48 -4 -90 -11 -93 -16 -3 -5 -70 -12 -148 -16 -78 -4
-142 -11 -142 -15 0 -5 -128 -9 -285 -9 -157 0 -285 4 -285 8 0 5 -62 12 -137
15 -75 4 -139 11 -142 16 -3 4 -45 12 -93 16 -49 4 -88 10 -88 14 0 4 -51 13
-112 20 -62 7 -114 17 -116 22 -2 5 -17 9 -33 9 -16 0 -29 5 -29 10 0 6 -13
10 -30 10 -16 0 -30 4 -30 9 0 5 -25 13 -55 16 -30 4 -55 11 -55 15 0 4 -29
14 -65 21 -36 7 -65 16 -65 20 0 4 -18 10 -40 14 -22 4 -40 11 -40 15 0 5 -20
12 -45 16 -25 3 -45 10 -45 15 0 4 -16 11 -35 15 -19 3 -35 10 -35 15 0 5 -9
9 -20 9 -11 0 -20 4 -20 9 0 5 -13 12 -30 16 -16 4 -30 10 -30 14 0 4 -25 14
-55 21 -30 7 -55 17 -55 21 0 4 -14 10 -30 14 -17 4 -30 11 -30 16 0 5 -7 9
-15 9 -9 0 -18 7 -21 15 -4 8 -12 15 -20 15 -8 0 -14 4 -14 9 0 5 -15 12 -34
15 -19 4 -37 13 -40 21 -3 8 -12 15 -21 15 -8 0 -15 4 -15 10 0 5 -16 12 -35
16 -19 3 -35 10 -35 14 0 4 -13 13 -30 19 -16 5 -30 14 -30 20 0 5 -13 12 -30
16 -16 4 -32 15 -35 26 -4 10 -15 19 -26 19 -10 0 -19 4 -19 8 0 5 -12 15 -27
23 -33 17 -44 25 -84 61 -16 15 -40 30 -53 34 -14 3 -33 17 -43 30 -10 13 -22
24 -26 24 -5 0 -23 16 -40 35 -17 19 -37 35 -44 35 -8 0 -30 16 -50 35 -20 19
-42 35 -50 35 -7 0 -13 5 -13 10 0 11 -36 50 -46 50 -4 0 -42 36 -85 80 -43
44 -81 80 -84 80 -10 0 -65 63 -65 75 -1 5 -14 21 -30 35 -17 13 -30 30 -30
36 0 7 -9 16 -20 19 -11 3 -20 12 -20 18 -1 7 -14 23 -30 37 -17 13 -30 28
-30 32 0 5 -9 18 -20 30 -11 12 -20 28 -20 35 0 15 -36 53 -50 53 -5 0 -10 7
-10 15 0 9 -7 18 -15 21 -8 4 -15 11 -15 18 0 6 -8 19 -17 28 -31 29 -42 45
-49 72 -3 14 -10 26 -15 26 -5 0 -14 11 -19 25 -5 14 -16 25 -24 25 -7 0 -17
11 -20 25 -4 14 -11 25 -16 25 -6 0 -10 8 -10 18 0 11 -9 29 -20 42 -11 13
-20 29 -20 37 0 7 -4 13 -9 13 -5 0 -12 11 -15 25 -4 14 -11 25 -16 25 -5 0
-12 16 -16 35 -3 19 -12 35 -19 35 -7 0 -18 20 -25 45 -7 25 -17 45 -21 45 -5
0 -9 6 -9 14 0 8 -6 21 -14 28 -7 8 -17 29 -21 46 -3 18 -11 32 -15 32 -5 0
-12 16 -16 35 -3 19 -10 35 -15 35 -5 0 -12 18 -15 40 -4 23 -12 40 -20 40 -7
0 -16 16 -20 35 -3 19 -9 35 -13 35 -4 0 -13 29 -20 65 -7 36 -17 65 -21 65
-5 0 -11 18 -15 40 -4 22 -10 40 -15 40 -4 0 -11 24 -14 52 -4 29 -11 55 -17
58 -5 4 -12 34 -15 68 -5 40 -11 62 -20 62 -8 0 -15 23 -19 65 -4 36 -11 65
-15 65 -4 0 -11 36 -15 80 -4 44 -10 80 -14 80 -9 0 -31 245 -31 338 0 35 -4
62 -10 62 -6 0 -10 82 -10 225 0 143 4 225 10 225 6 0 10 28 10 64 0 94 21
320 30 326 4 3 11 44 15 93 4 48 10 87 15 87 4 0 11 29 15 65 4 43 11 65 19
65 9 0 15 20 19 57 3 31 10 59 15 62 5 3 12 27 16 54 4 26 11 47 16 47 4 0 11
23 15 50 4 28 10 50 15 50 4 0 13 27 21 60 7 33 16 60 20 60 4 0 10 16 13 35
4 20 13 35 21 35 8 0 16 16 20 40 4 22 11 40 16 40 5 0 9 11 9 24 0 14 7 31
15 39 7 8 17 26 21 41 3 14 10 26 15 26 4 0 11 16 15 35 3 19 10 35 14 35 4 0
12 18 19 40 6 22 18 40 26 40 8 0 17 15 21 35 3 19 10 35 14 35 5 0 11 14 15
30 4 17 11 30 16 30 5 0 9 7 9 15 0 9 6 18 14 21 8 3 18 19 21 35 4 16 11 29
16 29 5 0 11 11 15 25 3 14 13 25 21 25 8 0 19 14 24 30 6 17 15 30 20 30 5 0
9 7 9 15 0 9 7 18 15 21 8 4 15 15 15 25 0 11 7 22 15 25 8 4 15 12 15 20 0 8
9 22 20 31 11 10 20 23 20 30 0 7 6 13 13 13 15 0 38 26 54 63 7 15 17 27 23
27 5 0 10 7 10 15 0 8 25 39 55 69 30 30 55 57 55 60 0 3 12 19 28 35 15 17
38 44 52 60 13 17 28 31 33 31 11 0 57 42 57 53 0 9 61 67 71 67 3 0 12 11 19
25 7 14 18 25 24 25 6 0 22 12 35 25 13 14 29 25 37 25 8 0 14 4 14 10 0 16
65 76 98 89 17 7 33 19 36 27 3 8 10 14 16 14 15 0 50 33 50 47 0 7 12 16 28
19 15 4 34 13 42 21 33 30 64 53 72 53 4 0 17 9 28 20 11 11 29 20 39 20 10 0
21 7 25 15 3 8 12 15 21 15 8 0 15 6 15 14 0 8 9 18 20 21 11 3 20 10 20 15 0
4 20 14 45 21 25 7 45 17 45 21 0 4 7 8 15 8 9 0 18 6 21 14 3 8 28 20 55 27
27 7 49 16 49 20 0 4 9 9 20 12 11 3 20 12 20 20 0 9 13 18 30 22 17 4 30 10
30 15 0 4 23 13 50 20 28 7 50 16 50 21 0 4 16 11 35 15 19 3 35 10 35 15 0 4
16 11 35 15 19 3 35 10 35 15 0 4 27 14 60 21 34 7 60 17 60 24 0 7 18 15 40
19 22 4 40 10 40 15 0 5 19 11 43 15 23 4 44 11 47 16 3 4 36 14 73 21 37 7
67 16 67 20 0 3 25 10 55 13 30 4 55 11 55 15 0 5 29 12 65 15 42 5 65 12 65
20 0 9 33 17 103 25 56 7 104 16 107 21 3 4 56 11 118 15 61 4 112 11 112 15
0 13 151 16 549 14 225 -1 366 -6 370 -12z"/>
<path d="M6730 8541 c0 -5 -18 -11 -40 -15 -25 -4 -40 -12 -40 -20 0 -8 -8
-17 -18 -21 -36 -11 -42 -49 -42 -250 l0 -195 -88 0 c-89 0 -202 -17 -202 -30
0 -4 -9 -17 -20 -30 -11 -13 -20 -29 -20 -37 0 -7 -4 -13 -10 -13 -6 0 -10
-57 -10 -150 0 -93 4 -150 10 -150 6 0 10 -5 10 -11 0 -17 43 -59 62 -59 9 0
18 -5 20 -11 3 -8 48 -14 126 -17 l122 -5 0 -84 c0 -92 -11 -115 -62 -128 -16
-4 -28 -13 -28 -20 0 -7 -16 -16 -35 -19 -19 -4 -35 -11 -35 -16 0 -4 -13 -11
-30 -15 -16 -4 -30 -10 -30 -15 0 -4 -22 -13 -50 -20 -27 -7 -50 -16 -50 -20
0 -5 -13 -11 -30 -15 -16 -4 -30 -11 -30 -16 0 -5 -20 -14 -45 -21 -25 -7 -45
-17 -45 -24 0 -7 -11 -15 -25 -18 -14 -4 -25 -11 -25 -16 0 -6 -6 -10 -12 -10
-7 0 -24 -12 -37 -25 -13 -14 -27 -25 -32 -25 -5 0 -9 -5 -9 -11 0 -6 -7 -17
-15 -25 -8 -9 -15 -24 -15 -35 0 -10 -4 -19 -9 -19 -5 0 -12 -16 -15 -35 -4
-19 -11 -35 -16 -35 -6 0 -11 -131 -12 -326 l-3 -325 -100 -4 c-61 -1 -101 -7
-103 -14 -2 -6 -16 -11 -31 -11 -16 0 -38 -9 -51 -20 -13 -11 -27 -20 -32 -20
-5 0 -21 -13 -36 -28 -15 -16 -35 -31 -45 -35 -9 -3 -17 -13 -17 -21 0 -7 -7
-16 -15 -20 -8 -3 -15 -12 -15 -21 0 -8 -4 -15 -9 -15 -5 0 -15 -22 -22 -50
-7 -27 -16 -50 -21 -50 -4 0 -8 -9 -8 -19 0 -16 -10 -21 -47 -27 -27 -4 -50
-10 -53 -13 -8 -10 -49 -31 -60 -31 -11 0 -14 198 -4 236 4 16 16 23 45 28 21
3 39 10 39 15 0 5 14 11 31 15 34 6 149 116 149 141 0 8 6 15 14 15 8 0 18 14
21 33 4 17 13 35 19 39 15 10 15 226 0 236 -6 4 -14 24 -18 45 -4 22 -13 37
-21 37 -8 0 -15 6 -15 14 0 8 -7 22 -16 30 -8 9 -11 16 -5 16 6 0 11 7 11 16
0 9 9 18 19 21 13 3 21 17 26 41 4 21 12 40 18 44 17 10 16 230 0 235 -7 3
-13 15 -13 28 0 34 -10 55 -26 55 -8 0 -14 6 -14 13 0 8 -8 23 -17 35 -10 11
-29 34 -43 51 -14 17 -30 31 -37 31 -7 0 -13 7 -13 15 0 8 -17 19 -42 26 -24
6 -46 15 -49 20 -3 5 -29 12 -57 16 -29 3 -52 10 -52 14 0 5 -12 9 -28 9 -15
0 -35 8 -43 18 -24 26 -58 52 -68 52 -6 0 -12 9 -16 19 -3 12 -19 21 -40 25
-18 4 -35 11 -37 16 -2 6 -38 14 -80 20 -71 9 -81 13 -115 48 -21 22 -48 42
-60 46 -13 4 -23 12 -23 17 0 5 -7 9 -15 9 -8 0 -15 4 -15 9 0 5 -15 13 -32
16 -18 4 -36 12 -40 18 -9 14 -248 14 -256 -1 -4 -6 -20 -14 -35 -17 -15 -4
-27 -11 -27 -16 0 -5 -7 -9 -15 -9 -8 0 -15 -4 -15 -9 0 -5 -9 -13 -21 -16
-11 -4 -37 -24 -58 -45 -33 -34 -43 -38 -115 -48 -43 -6 -82 -15 -85 -20 -3
-6 -19 -14 -34 -17 -15 -4 -27 -11 -27 -16 0 -5 -9 -9 -20 -9 -11 0 -20 -4
-20 -9 0 -5 -16 -25 -36 -45 -25 -25 -45 -36 -65 -36 -16 0 -29 -4 -29 -9 0
-5 -23 -11 -51 -13 -28 -3 -54 -10 -58 -16 -3 -6 -28 -16 -54 -22 -26 -7 -47
-17 -47 -23 0 -6 -22 -32 -49 -57 -28 -26 -53 -59 -56 -73 -4 -15 -13 -27 -20
-27 -8 0 -16 -17 -20 -40 -4 -22 -11 -40 -16 -40 -5 0 -9 -45 -9 -100 0 -55 4
-100 9 -100 5 0 12 -18 16 -40 4 -22 12 -40 18 -40 7 0 17 -16 23 -36 13 -40
0 -104 -22 -104 -13 0 -24 -31 -24 -72 0 -16 -4 -28 -10 -28 -6 0 -10 -37 -10
-90 0 -49 4 -90 9 -90 5 0 11 -18 15 -40 4 -25 12 -40 20 -40 8 0 17 -14 21
-31 11 -48 119 -149 160 -149 8 0 15 -4 15 -10 0 -5 16 -12 35 -16 20 -3 35
-12 35 -20 0 -8 7 -14 15 -14 13 0 15 -52 15 -410 l0 -410 -105 0 c-58 0 -105
-4 -105 -9 0 -5 -13 -12 -30 -16 -16 -3 -32 -15 -35 -25 -3 -10 -15 -20 -25
-23 -11 -3 -20 -12 -20 -21 0 -9 -4 -16 -10 -16 -6 0 -10 -55 -10 -145 0 -90
4 -145 10 -145 6 0 10 -7 10 -16 0 -9 9 -18 20 -21 11 -3 20 -10 20 -15 0 -18
29 -38 62 -45 18 -3 36 -11 40 -17 4 -6 8 -165 8 -353 0 -222 4 -343 10 -343
6 0 10 -12 10 -27 0 -53 13 -103 25 -103 7 0 16 -16 19 -35 4 -19 11 -35 15
-35 5 0 11 -13 14 -29 3 -16 12 -35 20 -42 7 -8 16 -22 20 -31 3 -10 11 -18
17 -18 5 0 10 -5 10 -12 0 -13 48 -58 62 -58 4 0 8 -5 8 -11 0 -13 46 -59 58
-59 4 0 15 -9 25 -20 9 -11 24 -20 32 -20 8 0 15 -4 15 -10 0 -5 18 -15 40
-21 22 -7 40 -16 40 -20 0 -5 16 -11 35 -15 19 -3 35 -12 35 -19 0 -9 22 -16
65 -20 36 -4 65 -11 65 -16 0 -5 424 -9 990 -9 555 0 990 4 990 9 0 4 27 11
60 15 41 5 60 11 60 21 0 7 14 16 30 20 17 4 30 10 30 14 0 4 22 13 49 20 27
7 52 20 55 28 6 14 20 15 103 9 54 -4 100 -10 103 -15 3 -4 69 -14 148 -21 78
-7 142 -16 142 -20 0 -4 41 -11 90 -14 64 -5 90 -11 90 -21 0 -9 27 -15 95
-20 52 -4 95 -11 95 -16 0 -5 54 -9 120 -9 73 0 120 4 120 10 0 6 10 10 23 10
38 0 67 12 67 26 0 8 10 14 25 14 14 0 28 6 31 14 3 8 18 18 34 21 16 3 44 21
64 38 19 18 48 44 64 58 16 15 32 33 35 40 4 10 6 9 6 -3 1 -10 5 -18 10 -18
5 0 19 -11 32 -25 13 -13 27 -25 31 -25 11 0 118 -109 118 -120 0 -5 18 -13
40 -16 22 -4 40 -10 40 -15 0 -5 36 -9 80 -9 44 0 80 4 80 9 0 5 14 11 30 15
18 3 30 12 30 21 0 8 6 15 14 15 7 0 22 12 32 26 10 14 25 32 32 39 6 8 12 18
12 23 0 6 6 12 12 14 9 3 13 32 13 93 0 70 3 89 15 93 8 3 17 8 20 11 3 4 17
12 33 18 15 7 27 19 27 27 0 7 7 16 15 20 8 3 15 12 15 21 0 8 7 15 15 15 18
0 30 55 29 135 0 69 -10 115 -24 115 -15 0 -50 38 -50 55 0 8 -6 15 -14 15 -8
0 -16 6 -19 14 -3 8 -20 17 -38 21 -31 7 -32 7 -26 59 8 80 -2 144 -24 151
-11 4 -19 12 -19 19 0 16 -73 96 -88 96 -6 0 -12 5 -14 12 -3 8 -35 12 -96 12
l-92 1 0 1105 c0 608 -3 1129 -6 1158 -5 34 -11 52 -20 52 -8 0 -14 10 -14 24
0 14 -6 31 -13 38 -8 7 -17 26 -21 42 -8 34 -97 126 -121 126 -9 0 -19 9 -22
19 -3 12 -21 23 -49 31 -24 7 -44 16 -44 21 0 4 -16 11 -35 15 -19 3 -35 10
-35 14 0 4 -20 13 -45 20 -25 7 -45 16 -45 21 0 4 -13 10 -30 14 -16 4 -30 10
-30 15 0 5 -13 11 -30 15 -16 4 -30 13 -30 20 0 7 -22 19 -50 26 l-50 13 0 96
0 97 117 6 c70 3 119 10 121 16 2 6 9 11 15 11 15 0 57 44 57 59 0 6 5 11 10
11 6 0 10 11 10 25 0 14 5 25 10 25 6 0 10 44 10 113 0 101 -2 114 -20 127
-11 8 -20 19 -20 26 0 6 -9 21 -20 34 -11 13 -20 26 -20 31 0 13 -99 29 -185
29 l-85 0 0 185 c0 102 -4 185 -8 185 -4 0 -14 15 -20 34 -7 19 -19 37 -27 40
-8 3 -15 12 -15 20 0 14 -29 26 -67 26 -13 0 -23 5 -23 10 0 6 -98 10 -275 10
-151 0 -275 -4 -275 -9z m60 -216 c0 -14 -4 -25 -10 -25 -5 0 -10 11 -10 25 0
14 5 25 10 25 6 0 10 -11 10 -25z m-353 -485 c2 -18 0 -18 -13 -6 -17 18 -18
26 -1 26 7 0 13 -9 14 -20z m3 -50 c0 -5 -7 -10 -15 -10 -8 0 -15 5 -15 10 0
6 7 10 15 10 8 0 15 -4 15 -10z m1160 -30 c0 -5 -4 -10 -10 -10 -5 0 -10 5
-10 10 0 6 5 10 10 10 6 0 10 -4 10 -10z m-1160 -30 c0 -11 -7 -20 -15 -20
-18 0 -19 6 -2 25 16 19 17 18 17 -5z m1160 -10 c0 -5 -4 -10 -10 -10 -5 0
-10 5 -10 10 0 6 5 10 10 10 6 0 10 -4 10 -10z m-3032 -207 c2 -7 10 -13 17
-13 8 0 20 -10 26 -22 11 -21 21 -34 47 -63 6 -7 12 -16 12 -20 0 -24 34 -33
129 -37 56 -1 105 -8 109 -13 4 -6 19 -16 35 -24 15 -8 27 -21 27 -28 0 -7 7
-16 15 -19 8 -4 15 -12 15 -20 0 -8 4 -14 9 -14 5 0 11 -9 14 -20 5 -18 14
-20 101 -20 53 0 96 -4 96 -9 0 -5 11 -12 25 -15 28 -7 75 -48 75 -65 0 -6 6
-11 14 -11 8 0 17 -12 21 -27 3 -15 11 -31 17 -34 13 -8 12 -173 -2 -177 -5
-2 -10 -10 -10 -18 0 -8 -11 -19 -25 -24 -14 -5 -25 -16 -25 -25 0 -8 -4 -15
-10 -15 -5 0 -10 -6 -10 -13 0 -14 -35 -47 -50 -47 -6 0 -10 -3 -10 -6 0 -10
97 -104 108 -104 5 0 13 -15 16 -34 4 -19 12 -36 18 -38 13 -5 14 -168 1 -177
-5 -3 -12 -14 -16 -23 -3 -10 -13 -18 -22 -18 -8 0 -15 -6 -15 -13 0 -17 -34
-45 -65 -53 -14 -3 -25 -12 -25 -19 0 -20 -24 -25 -116 -25 -71 0 -86 -3 -91
-17 -4 -10 -15 -25 -25 -34 -10 -9 -18 -22 -18 -28 0 -6 -12 -17 -27 -24 -16
-6 -32 -17 -36 -24 -4 -7 -19 -13 -32 -13 -16 0 -25 -6 -25 -15 0 -12 -15 -15
-79 -15 -88 0 -111 -5 -111 -26 0 -8 -5 -14 -10 -14 -6 0 -14 -8 -17 -17 -9
-23 -35 -53 -47 -53 -5 0 -14 -7 -20 -15 -16 -21 -159 -32 -222 -16 -36 9 -60
25 -96 62 -26 27 -48 56 -48 64 0 12 -19 15 -100 15 -80 0 -100 3 -100 14 0 8
-9 18 -21 21 -12 4 -30 14 -41 24 -47 39 -68 61 -68 71 0 5 -4 10 -10 10 -5 0
-10 7 -10 15 0 12 -15 15 -72 15 -97 0 -148 9 -148 26 0 8 -6 14 -13 14 -6 0
-25 16 -41 35 -16 19 -35 35 -42 35 -7 0 -16 16 -20 35 -3 19 -10 35 -15 35
-5 0 -9 27 -9 60 0 33 4 60 9 60 5 0 12 20 15 44 5 32 12 45 26 49 11 3 20 12
20 21 0 9 4 16 9 16 5 0 25 15 44 33 l34 32 -28 25 c-16 13 -29 28 -29 33 0
14 -43 57 -57 57 -7 0 -15 16 -19 35 -3 19 -10 35 -15 35 -5 0 -9 29 -9 65 0
36 4 65 9 65 5 0 12 15 15 34 4 22 13 36 26 39 12 3 20 14 20 26 0 12 6 21 15
21 9 0 18 6 21 14 3 8 19 18 35 21 16 4 29 11 29 16 0 5 36 9 80 9 76 0 130
13 130 32 0 5 7 16 15 24 8 9 15 24 15 35 0 12 9 21 25 25 14 3 29 14 34 22 8
13 31 17 119 20 107 4 110 5 123 31 8 14 20 30 26 34 7 4 13 15 13 23 0 18 23
44 39 44 5 0 14 6 18 14 11 19 49 24 162 22 66 -1 96 -5 99 -13z m2672 -53 c0
-5 -4 -10 -10 -10 -5 0 -10 5 -10 10 0 6 5 10 10 10 6 0 10 -4 10 -10z m-423
-136 c-3 -3 -12 -4 -19 -1 -8 3 -5 6 6 6 11 1 17 -2 13 -5z m426 -61 c-3 -7
-9 -13 -13 -13 -4 0 -10 6 -13 13 -3 7 3 13 13 13 10 0 16 -6 13 -13z m-453
-13 c10 0 20 6 23 13 2 6 4 -3 5 -20 0 -22 -4 -33 -14 -33 -8 0 -14 7 -14 15
0 16 -16 21 -22 6 -1 -5 -16 -12 -33 -15 -16 -4 -23 -3 -15 1 21 9 40 30 41
45 0 10 2 10 6 1 2 -7 13 -13 23 -13z m450 -25 c0 -8 -4 -15 -10 -15 -5 0 -10
7 -10 15 0 8 5 15 10 15 6 0 10 -7 10 -15z m30 6 c0 -5 10 -12 23 -14 16 -3
13 -5 -10 -6 -23 -1 -33 3 -33 14 0 8 5 15 10 15 6 0 10 -4 10 -9z m-600 -46
c0 -8 -4 -15 -10 -15 -5 0 -10 7 -10 15 0 8 5 15 10 15 6 0 10 -7 10 -15z
m700 5 c0 -5 -4 -10 -10 -10 -5 0 -10 5 -10 10 0 6 5 10 10 10 6 0 10 -4 10
-10z m30 -25 c0 -8 -7 -15 -15 -15 -16 0 -20 12 -8 23 11 12 23 8 23 -8z m53
-22 c-7 -2 -13 -13 -13 -23 0 -10 -6 -20 -14 -23 -10 -4 -12 0 -8 16 6 23 20
37 37 36 6 0 4 -3 -2 -6z m-946 -35 c-3 -8 -6 -5 -6 6 -1 11 2 17 5 13 3 -3 4
-12 1 -19z m83 7 c0 -8 -4 -15 -10 -15 -5 0 -10 7 -10 15 0 8 5 15 10 15 6 0
10 -7 10 -15z m948 -19 c12 -3 12 -4 -3 -3 -11 1 -20 9 -21 17 0 8 1 10 3 3 2
-6 12 -14 21 -17z m-1131 -48 c-3 -8 -6 -5 -6 6 -1 11 2 17 5 13 3 -3 4 -12 1
-19z m1243 -3 c0 -8 -9 -15 -20 -15 -17 0 -19 2 -8 15 17 19 28 19 28 0z
m-1323 -21 c-3 -3 -12 -4 -19 -1 -8 3 -5 6 6 6 11 1 17 -2 13 -5z m1377 -2
c-6 -4 -14 -17 -18 -29 -7 -23 -26 -32 -26 -13 0 6 4 10 9 10 5 0 11 9 14 20
3 11 11 20 19 20 9 0 9 -3 2 -8z m-1414 -12 c0 -5 -4 -10 -10 -10 -5 0 -10 5
-10 10 0 6 5 10 10 10 6 0 10 -4 10 -10z m1450 0 c0 -5 -4 -10 -10 -10 -5 0
-10 5 -10 10 0 6 5 10 10 10 6 0 10 -4 10 -10z m56 -20 c8 0 14 -4 14 -10 0
-16 -30 -12 -48 7 -16 16 -16 16 1 10 10 -4 25 -7 33 -7z m-1566 -10 c0 -5 -4
-10 -10 -10 -5 0 -10 5 -10 10 0 6 5 10 10 10 6 0 10 -4 10 -10z m1624 -43 c3
-12 3 -23 1 -26 -3 -2 -5 1 -5 7 0 7 -7 12 -15 12 -8 0 -15 9 -15 20 0 26 26
16 34 -13z m-1654 8 c0 -8 -7 -15 -15 -15 -24 0 -31 -31 -10 -46 10 -8 15 -17
11 -21 -4 -4 -10 -2 -14 4 -4 6 -16 12 -26 14 -30 6 -31 28 -2 39 14 5 26 16
26 25 0 8 7 15 15 15 8 0 15 -7 15 -15z m1650 -74 c0 -17 -17 -13 -24 5 -10
27 -7 36 9 20 8 -8 15 -19 15 -25z m-1730 -1 c0 -11 -6 -20 -14 -20 -9 0 -12
7 -9 20 3 11 9 20 14 20 5 0 9 -9 9 -20z m1793 0 c3 -13 0 -20 -9 -20 -8 0
-14 9 -14 20 0 11 4 20 9 20 5 0 11 -9 14 -20z m-1750 -29 c6 -23 0 -31 -22
-30 -12 0 -11 3 4 9 17 7 17 9 3 9 -10 1 -18 8 -18 16 0 22 27 18 33 -4z
m1784 -17 c-3 -3 -12 -4 -19 -1 -8 3 -5 6 6 6 11 1 17 -2 13 -5z m-1857 -19
c0 -8 -4 -15 -10 -15 -5 0 -10 7 -10 15 0 8 5 15 10 15 6 0 10 -7 10 -15z
m1860 -5 c0 -5 -7 -10 -15 -10 -8 0 -15 5 -15 10 0 6 7 10 15 10 8 0 15 -4 15
-10z m-1802 -54 c12 -3 11 -4 -3 -3 -12 1 -20 10 -21 22 -1 14 0 15 3 3 2 -9
12 -19 21 -22z m1735 24 c-3 -11 -9 -20 -14 -20 -5 0 -9 9 -9 20 0 11 6 20 14
20 9 0 12 -7 9 -20z m67 -5 c0 -8 -7 -15 -15 -15 -8 0 -15 7 -15 15 0 8 7 15
15 15 8 0 15 -7 15 -15z m-1840 -25 c8 -5 11 -12 7 -17 -5 -4 -12 -1 -17 7 -7
10 -10 11 -10 3 0 -7 -4 -13 -10 -13 -5 0 -10 7 -10 15 0 17 18 19 40 5z m260
-30 c0 -5 -7 -10 -15 -10 -8 0 -15 -4 -15 -10 0 -5 -9 -10 -20 -10 -11 0 -23
-6 -26 -14 -3 -8 -12 -17 -19 -20 -9 -3 -12 0 -9 9 3 7 12 16 20 19 8 3 14 12
14 20 0 14 17 23 53 25 9 0 17 -3 17 -9z m-140 -21 c0 -14 -17 -10 -23 5 -4
10 -1 13 9 9 7 -3 14 -9 14 -14z m60 0 c0 -14 -17 -10 -23 5 -4 10 -1 13 9 9
7 -3 14 -9 14 -14z m1443 14 c-17 -6 -16 -21 2 -39 13 -14 15 -13 15 10 0 30
5 32 26 12 21 -21 17 -33 -11 -38 -17 -4 -33 2 -50 18 -32 30 -32 42 3 41 15
0 21 -2 15 -4z m84 -40 c-3 -10 -5 -2 -5 17 0 19 2 27 5 18 2 -10 2 -26 0 -35z
m-1581 -8 c-3 -8 1 -21 9 -28 11 -12 9 -14 -14 -13 -23 1 -26 4 -23 29 3 15
11 27 19 27 9 0 13 -6 9 -15z m1562 -46 c11 0 12 -2 5 -6 -7 -2 -13 -11 -13
-19 0 -8 -4 -14 -10 -14 -5 0 -10 9 -10 19 0 11 -3 21 -7 24 -5 2 -2 2 5 0 8
-1 21 -3 30 -4z m-1564 -31 c3 -13 6 -173 6 -356 0 -296 -2 -332 -15 -318 -17
17 -20 36 -5 36 6 0 10 112 10 315 0 203 -4 315 -10 315 -5 0 -10 7 -10 15 0
23 17 18 24 -7z m-27 -40 c-3 -8 -6 -5 -6 6 -1 11 2 17 5 13 3 -3 4 -12 1 -19z
m1393 -24 c0 -16 -5 -24 -12 -21 -7 2 -12 11 -10 21 3 15 -43 16 -566 16 -497
0 -571 -2 -576 -15 -8 -22 -26 -18 -26 5 0 20 7 20 595 20 l595 0 0 -26z
m-1010 -34 c0 -5 -4 -10 -10 -10 -5 0 -10 5 -10 10 0 6 5 10 10 10 6 0 10 -4
10 -10z m84 -6 c9 -25 7 -34 -8 -34 -8 0 -16 -4 -18 -10 -4 -12 -78 7 -78 20
0 6 5 10 10 10 6 0 10 -4 10 -10 0 -16 50 -12 66 5 9 8 11 15 5 15 -6 0 -11 5
-11 10 0 16 17 12 24 -6z m86 6 c0 -5 -4 -10 -10 -10 -5 0 -10 5 -10 10 0 6 5
10 10 10 6 0 10 -4 10 -10z m90 0 c0 -5 -7 -10 -15 -10 -8 0 -15 5 -15 10 0 6
7 10 15 10 8 0 15 -4 15 -10z m590 -50 c0 -42 -14 -54 -23 -20 -4 14 -11 18
-24 14 -14 -5 -15 -4 -3 4 8 6 18 8 22 6 4 -3 8 4 8 15 0 12 5 21 10 21 6 0
10 -18 10 -40z m-570 15 c0 -8 -4 -15 -10 -15 -5 0 -10 7 -10 15 0 8 5 15 10
15 6 0 10 -7 10 -15z m37 -21 c-3 -3 -12 -4 -19 -1 -8 3 -5 6 6 6 11 1 17 -2
13 -5z m-207 -19 c0 -8 -4 -15 -10 -15 -5 0 -10 7 -10 15 0 8 5 15 10 15 6 0
10 -7 10 -15z m177 -35 c4 -13 3 -13 -7 0 -9 11 -13 12 -17 3 -7 -18 -33 -16
-33 1 0 20 52 16 57 -4z m-287 -75 l0 -85 88 -1 c48 -1 75 -4 60 -6 -29 -5
-37 -18 -15 -26 9 -4 9 -6 -1 -6 -7 -1 -15 6 -18 14 -8 19 -61 20 -80 1 -10
-10 -11 -15 -2 -18 7 -3 4 -12 -10 -26 -12 -12 -22 -18 -22 -14 0 4 4 12 10
18 13 13 1 54 -16 54 -11 0 -14 20 -14 90 0 53 4 90 10 90 6 0 10 -35 10 -85z
m220 75 c0 -5 -11 -10 -25 -10 -14 0 -25 5 -25 10 0 6 11 10 25 10 14 0 25 -4
25 -10z m120 -75 l0 -85 258 -1 c141 -1 247 -4 235 -6 -16 -3 -23 -11 -23 -29
0 -31 -16 -31 -24 1 -7 26 -30 34 -40 13 -5 -10 -7 -10 -12 0 -4 9 -53 12
-194 12 -158 0 -189 -2 -194 -15 -3 -8 -11 -15 -18 -15 -9 0 -9 3 2 10 11 7
12 12 4 18 -17 11 -23 182 -6 182 9 0 12 -24 12 -85z m-90 -59 c0 -8 -6 -16
-14 -19 -10 -4 -12 0 -9 14 6 22 23 26 23 5z m60 -5 c0 -10 -6 -21 -13 -24
-10 -4 -13 2 -9 19 5 28 22 32 22 5z m-110 -40 c0 -12 -39 -25 -47 -17 -4 3 1
6 10 6 10 0 17 5 17 10 0 6 5 10 10 10 6 0 10 -4 10 -9z m60 -1 c0 -5 -7 -10
-15 -10 -8 0 -15 5 -15 10 0 6 7 10 15 10 8 0 15 -4 15 -10z m20 -36 c0 -11 6
-15 19 -11 14 3 18 1 14 -9 -7 -18 -21 -18 -39 0 -16 17 -19 36 -4 36 6 0 10
-7 10 -16z m-53 -26 c-3 -8 -6 -5 -6 6 -1 11 2 17 5 13 3 -3 4 -12 1 -19z
m-87 2 c0 -5 -7 -10 -15 -10 -8 0 -15 5 -15 10 0 6 7 10 15 10 8 0 15 -4 15
-10z m-585 -30 c14 0 25 -22 25 -51 0 -10 7 -19 15 -19 8 0 15 -4 15 -10 0
-24 -31 -7 -36 20 -4 17 -12 30 -18 30 -18 0 -47 38 -33 43 7 2 14 0 15 -4 2
-5 10 -9 17 -9z m959 8 c-3 -4 -12 -8 -20 -8 -8 0 -14 4 -14 8 0 4 9 8 19 8
11 0 17 -4 15 -8z m-904 -23 c0 -9 -6 -12 -15 -9 -8 4 -15 10 -15 15 0 5 7 9
15 9 8 0 15 -7 15 -15z m394 0 c3 -9 0 -15 -9 -15 -8 0 -15 7 -15 15 0 8 4 15
9 15 5 0 11 -7 15 -15z m546 -25 c0 -25 -30 -27 -31 -2 -1 16 -2 16 -6 0 -6
-24 -23 -23 -23 2 0 16 7 20 30 20 23 0 30 -4 30 -20z m-1240 -40 c3 -4 20
-12 38 -18 38 -13 86 -58 96 -90 4 -12 11 -22 16 -22 4 0 11 -38 15 -85 l7
-85 49 0 c27 0 49 -4 49 -10 0 -5 16 -10 35 -10 19 0 35 -4 35 -9 0 -5 14 -12
30 -16 17 -4 30 -11 30 -16 0 -5 5 -9 11 -9 15 0 59 -42 59 -57 0 -6 5 -13 10
-15 13 -4 30 -115 23 -151 -7 -37 4 -77 22 -77 8 0 15 -4 15 -9 0 -5 11 -12
25 -15 28 -7 75 -48 75 -65 0 -6 5 -11 10 -11 6 0 10 -7 10 -15 0 -13 -36 -15
-266 -15 -285 0 -281 -1 -221 50 17 14 37 33 46 43 8 9 21 17 28 17 7 0 13 4
13 9 0 5 6 16 13 23 38 41 39 44 10 77 -15 17 -33 31 -40 31 -7 0 -13 4 -13
10 0 5 -9 14 -20 20 -17 9 -28 3 -76 -45 -31 -30 -67 -58 -79 -61 -15 -4 -25
-16 -29 -35 -3 -16 -10 -29 -16 -29 -7 0 -10 95 -10 280 l0 280 -85 0 -85 0 0
-230 c0 -240 -3 -255 -42 -212 -8 9 -30 28 -47 41 -17 13 -31 27 -31 32 0 12
-68 79 -80 79 -6 0 -10 -4 -10 -10 0 -5 -5 -10 -11 -10 -15 0 -59 -42 -59 -56
0 -7 -7 -14 -15 -18 -8 -3 -15 -11 -15 -17 0 -14 74 -89 87 -89 6 0 19 -12 29
-26 22 -30 102 -110 135 -136 22 -17 10 -18 -296 -18 -176 0 -315 4 -309 8 6
4 15 18 19 30 9 32 39 60 70 68 14 3 25 10 25 15 0 5 7 9 15 9 18 0 23 24 27
129 2 56 7 86 16 89 6 2 12 9 12 16 0 17 43 66 58 66 7 0 12 4 12 9 0 5 14 12
30 16 17 4 30 11 30 16 0 5 18 9 40 9 22 0 40 5 40 10 0 6 23 10 50 10 l50 0
0 70 c0 39 4 70 9 70 5 0 12 16 15 35 4 19 10 35 14 35 4 0 13 13 20 28 9 22
23 32 62 42 28 7 50 17 50 21 0 16 158 15 170 -1z m690 -55 l0 -75 254 0 c233
0 254 -1 258 -17 5 -17 -12 -18 -264 -15 l-268 3 0 89 c0 53 4 90 10 90 6 0
10 -32 10 -75z m-382 4 c-3 -8 -7 -3 -11 10 -4 17 -3 21 5 13 5 -5 8 -16 6
-23z m-2348 -18 c0 -5 10 -13 23 -17 12 -4 24 -11 28 -15 7 -11 100 -29 150
-29 23 0 39 -5 39 -12 0 -16 78 -88 96 -88 8 0 17 -6 20 -14 3 -8 17 -17 32
-21 15 -4 30 -12 34 -18 5 -8 53 -12 156 -12 128 0 151 2 166 18 10 9 24 17
32 17 8 0 14 5 14 10 0 6 8 10 19 10 20 0 111 80 111 98 0 7 17 12 45 12 54 0
145 19 145 30 0 5 14 11 30 15 17 4 30 11 30 16 0 5 5 9 10 9 6 0 10 -45 10
-116 0 -89 -3 -119 -15 -130 -8 -9 -15 -11 -15 -5 0 7 -25 11 -65 11 -37 0
-65 -4 -65 -10 0 -5 -16 -10 -35 -10 -19 0 -35 -4 -35 -9 0 -5 -15 -12 -34
-15 -19 -4 -37 -13 -40 -21 -3 -8 -12 -15 -21 -15 -8 0 -15 -4 -15 -9 0 -5 -9
-13 -20 -16 -26 -8 -90 -74 -90 -92 0 -7 -7 -13 -15 -13 -8 0 -15 6 -15 14 0
9 -20 16 -65 21 -83 9 -195 -3 -195 -20 0 -7 -15 -16 -34 -19 -18 -4 -44 -15
-56 -26 -13 -11 -27 -20 -31 -20 -17 0 -106 -97 -113 -124 -4 -16 -14 -35 -21
-43 -8 -8 -15 -25 -15 -38 0 -29 -21 -35 -122 -35 l-78 0 0 370 c0 240 4 370
10 370 6 0 10 -4 10 -9z m3320 -76 c0 -8 -7 -15 -15 -15 -8 0 -15 7 -15 15 0
8 7 15 15 15 8 0 15 -7 15 -15z m20 -35 c0 -5 -4 -10 -10 -10 -5 0 -10 5 -10
10 0 6 5 10 10 10 6 0 10 -4 10 -10z m-100 -20 c0 -5 -4 -10 -10 -10 -5 0 -10
5 -10 10 0 6 5 10 10 10 6 0 10 -4 10 -10z m37 4 c-3 -3 -12 -4 -19 -1 -8 3
-5 6 6 6 11 1 17 -2 13 -5z m49 -19 c-16 -17 -36 -20 -36 -6 0 8 17 16 43 20
5 0 2 -6 -7 -14z m-46 -5 c0 -5 -7 -10 -15 -10 -8 0 -15 5 -15 10 0 6 7 10 15
10 8 0 15 -4 15 -10z m-703 -16 c-3 -3 -12 -4 -19 -1 -8 3 -5 6 6 6 11 1 17
-2 13 -5z m663 -18 c0 -8 -6 -17 -12 -20 -9 -3 -8 -8 5 -16 23 -15 22 -30 -4
-30 -14 0 -19 5 -16 13 3 8 1 20 -4 28 -8 12 -10 12 -19 -1 -5 -8 -10 -11 -10
-6 0 13 33 45 48 45 6 1 12 -5 12 -13z m70 4 c0 -5 -4 -10 -10 -10 -5 0 -10 5
-10 10 0 6 5 10 10 10 6 0 10 -4 10 -10z m-633 -16 c-3 -3 -12 -4 -19 -1 -8 3
-5 6 6 6 11 1 17 -2 13 -5z m186 -8 c8 -9 12 -26 9 -45 -7 -48 -27 -38 -27 14
0 25 1 45 2 45 1 0 8 -6 16 -14z m64 8 c-3 -3 -12 -4 -19 -1 -8 3 -5 6 6 6 11
1 17 -2 13 -5z m56 -13 c3 -14 1 -18 -9 -14 -8 3 -14 11 -14 19 0 21 17 17 23
-5z m304 -1 c3 -10 2 -11 -4 -4 -4 6 -15 14 -23 17 -11 5 -9 6 4 4 11 -1 21
-9 23 -17z m93 6 c0 -8 -7 -17 -16 -20 -13 -5 -15 -15 -11 -44 3 -20 3 -32 0
-25 -2 7 -20 15 -39 19 -19 3 -34 9 -34 13 1 18 22 35 47 37 19 1 28 6 27 18
-1 9 4 16 12 16 8 0 14 -6 14 -14z m-675 -15 c-3 -6 -11 -11 -16 -11 -5 0 -4
6 3 14 14 16 24 13 13 -3z m365 9 c0 -5 -4 -10 -10 -10 -5 0 -10 5 -10 10 0 6
5 10 10 10 6 0 10 -4 10 -10z m-390 -75 c0 -7 7 -15 15 -19 19 -7 20 -26 1
-26 -8 0 -17 12 -20 26 -4 15 -14 33 -21 41 -8 8 -15 19 -15 25 0 6 9 1 20
-12 11 -13 20 -29 20 -35z m340 35 c0 -11 -7 -20 -15 -20 -18 0 -19 6 -2 25
16 19 17 18 17 -5z m60 10 c0 -5 -9 -10 -20 -10 -11 0 -20 5 -20 10 0 6 9 10
20 10 11 0 20 -4 20 -10z m310 -10 c0 -11 -7 -20 -15 -20 -18 0 -19 6 -2 25
16 19 17 18 17 -5z m-490 -10 c0 -5 -4 -10 -10 -10 -5 0 -10 5 -10 10 0 6 5
10 10 10 6 0 10 -4 10 -10z m80 -5 c0 -8 -7 -15 -15 -15 -8 0 -15 -4 -15 -9 0
-5 -9 -13 -21 -16 -24 -8 -48 -26 -94 -72 -36 -37 -45 -40 -45 -18 0 8 -9 15
-20 15 -11 0 -20 -5 -20 -12 0 -6 -3 -8 -7 -5 -6 7 30 47 42 47 3 0 5 -7 5
-15 0 -8 7 -15 15 -15 17 0 19 18 6 39 -6 9 -18 12 -36 7 -25 -6 -26 -5 -12 9
21 21 44 19 52 -5 6 -20 35 -28 35 -10 0 6 5 10 11 10 14 0 39 26 40 42 0 10
2 10 6 1 6 -16 23 -17 23 -3 0 15 23 39 38 40 6 0 12 -7 12 -15z m434 -27 c9
-33 8 -38 -8 -38 -16 0 -31 34 -21 50 10 17 22 11 29 -12z m103 -40 c-3 -8 -6
-5 -6 6 -1 11 2 17 5 13 3 -3 4 -12 1 -19z m-787 -15 c-8 -3 -18 -11 -22 -17
-5 -7 -8 -4 -8 7 0 11 7 17 23 16 15 0 17 -2 7 -6z m823 -8 c-3 -9 -8 -14 -10
-11 -3 3 -2 9 2 15 9 16 15 13 8 -4z m-19 -27 c6 -4 7 -10 3 -15 -10 -9 -27
16 -26 37 1 13 1 13 6 0 3 -8 11 -18 17 -22z m-804 -28 c0 -16 -4 -30 -10 -30
-5 0 -10 14 -10 30 0 17 5 30 10 30 6 0 10 -13 10 -30z m-1572 0 c30 0 32 -2
32 -36 0 -36 -15 -55 -89 -116 -11 -10 -21 -27 -21 -38 0 -11 -4 -20 -10 -20
-5 0 -10 -6 -10 -14 0 -8 -6 -21 -14 -29 -8 -7 -16 -25 -18 -38 -3 -23 -6 -24
-88 -24 l-85 0 0 84 c0 59 4 86 13 89 6 2 12 10 12 18 0 8 6 17 14 20 8 3 17
15 20 27 5 21 46 47 73 47 7 0 13 6 13 14 0 15 63 27 105 20 11 -2 35 -4 53
-4z m2359 -16 c2 -13 1 -15 -4 -4 -3 8 -11 19 -17 23 -7 6 -6 7 4 4 8 -2 16
-12 17 -23z m-437 1 c0 -8 -7 -15 -15 -15 -8 0 -15 7 -15 15 0 8 7 15 15 15 8
0 15 -7 15 -15z m40 0 c0 -8 -4 -15 -10 -15 -5 0 -10 7 -10 15 0 8 5 15 10 15
6 0 10 -7 10 -15z m120 0 c0 -9 -9 -15 -25 -15 -16 0 -25 6 -25 15 0 9 9 15
25 15 16 0 25 -6 25 -15z m340 0 c0 -8 -4 -15 -10 -15 -5 0 -10 7 -10 15 0 8
5 15 10 15 6 0 10 -7 10 -15z m-303 -21 c-3 -3 -12 -4 -19 -1 -8 3 -5 6 6 6
11 1 17 -2 13 -5z m268 -4 c-3 -5 -12 -10 -18 -10 -7 0 -6 4 3 10 19 12 23 12
15 0z m-219 -23 c32 -35 34 -43 11 -44 -17 -2 -19 0 -7 7 13 9 13 11 1 19 -8
5 -20 7 -28 4 -8 -3 -13 2 -13 16 0 27 10 26 36 -2z m-556 3 c0 -5 -4 -10 -10
-10 -5 0 -10 5 -10 10 0 6 5 10 10 10 6 0 10 -4 10 -10z m259 -15 c37 -4 48
-11 36 -22 -4 -5 -10 -2 -13 6 -4 11 -6 11 -14 0 -7 -11 -11 -11 -15 -2 -3 10
-8 9 -20 -2 -8 -8 -24 -15 -35 -15 -12 0 -18 -5 -15 -12 3 -8 -5 -14 -20 -14
-24 -2 -24 -2 -3 16 11 9 20 21 20 25 0 14 35 42 41 33 3 -5 20 -10 38 -13z
m-281 -20 c-3 -3 -9 2 -12 12 -6 14 -5 15 5 6 7 -7 10 -15 7 -18z m812 -4 c0
-16 5 -32 10 -34 6 -3 5 -4 -2 -3 -14 3 -30 66 -17 66 5 0 9 -13 9 -29z m-290
-4 c12 -4 11 -6 -2 -6 -10 -1 -18 -5 -18 -11 0 -5 -7 -10 -15 -10 -8 0 -15 5
-15 10 0 6 7 10 15 10 9 0 12 6 9 18 -4 10 -3 13 3 6 4 -6 15 -14 23 -17z
m-230 -22 c0 -8 -7 -15 -15 -15 -9 0 -12 6 -9 15 4 8 10 15 15 15 5 0 9 -7 9
-15z m270 5 c0 -5 -4 -10 -10 -10 -5 0 -10 5 -10 10 0 6 5 10 10 10 6 0 10 -4
10 -10z m67 -16 c-3 -3 -12 -4 -19 -1 -8 3 -5 6 6 6 11 1 17 -2 13 -5z m-2787
-24 c0 -5 20 -10 45 -10 l45 0 0 -75 0 -75 -164 0 c-159 0 -164 1 -159 20 3
11 9 20 14 20 5 0 9 6 9 13 0 14 35 47 50 47 6 0 13 7 16 15 4 8 12 15 20 15
8 0 14 5 14 10 0 6 18 10 40 10 22 0 40 5 40 10 0 6 7 10 15 10 8 0 15 -4 15
-10z m2351 -12 c11 -11 19 -26 19 -31 0 -6 -8 0 -19 11 -24 28 -31 28 -31 -3
0 -14 5 -25 10 -25 6 0 10 -4 10 -10 0 -5 -7 -10 -15 -10 -16 0 -21 43 -9 74
8 21 13 20 35 -6z m446 -30 c-2 -13 -4 -5 -4 17 -1 22 1 32 4 23 2 -10 2 -28
0 -40z m193 22 c0 -16 -4 -30 -10 -30 -5 0 -10 14 -10 30 0 17 5 30 10 30 6 0
10 -13 10 -30z m-650 -90 c0 -5 -4 -10 -10 -10 -5 0 -10 5 -10 10 0 6 5 10 10
10 6 0 10 -4 10 -10z m50 0 c0 -5 -4 -10 -10 -10 -5 0 -10 5 -10 10 0 6 5 10
10 10 6 0 10 -4 10 -10z m388 -45 c9 1 11 0 5 -2 -7 -3 -13 -10 -13 -16 0 -7
-4 -6 -10 3 -5 8 -9 24 -8 35 1 18 1 18 5 -1 3 -14 11 -21 21 -19z m-461 3
c-3 -8 -6 -5 -6 6 -1 11 2 17 5 13 3 -3 4 -12 1 -19z m103 12 c0 -5 -4 -10
-10 -10 -5 0 -10 5 -10 10 0 6 5 10 10 10 6 0 10 -4 10 -10z m35 -9 c-3 -6
-11 -11 -16 -11 -5 0 -4 6 3 14 14 16 24 13 13 -3z m535 4 c0 -8 -4 -15 -10
-15 -5 0 -10 7 -10 15 0 8 5 15 10 15 6 0 10 -7 10 -15z m-622 -23 c2 -7 -3
-12 -12 -12 -9 0 -16 7 -16 16 0 17 22 14 28 -4z m119 -4 c-3 -8 -6 -5 -6 6
-1 11 2 17 5 13 3 -3 4 -12 1 -19z m-67 -23 c0 -8 7 -15 15 -15 8 0 15 -4 15
-9 0 -5 3 -18 7 -28 3 -10 -10 -1 -30 20 -41 43 -43 47 -22 47 8 0 15 -7 15
-15z m37 9 c-3 -3 -12 -4 -19 -1 -8 3 -5 6 6 6 11 1 17 -2 13 -5z m314 -13 c4
7 11 10 14 7 11 -10 -32 -51 -47 -45 -8 4 -7 6 5 6 14 1 17 7 13 24 -3 12 -3
16 0 8 5 -11 8 -11 15 0z m-214 -63 c-3 -7 -5 -2 -5 12 0 14 2 19 5 13 2 -7 2
-19 0 -25z m100 26 c-3 -3 -12 -4 -19 -1 -8 3 -5 6 6 6 11 1 17 -2 13 -5z
m-34 -17 c3 -7 -3 -13 -13 -13 -10 0 -16 6 -13 13 3 7 9 13 13 13 4 0 10 -6
13 -13z m97 -3 c0 -22 -21 -41 -58 -49 -18 -3 -32 -11 -32 -16 0 -14 -27 -11
-33 4 -7 17 9 44 20 34 4 -5 1 -13 -7 -18 -11 -8 -7 -9 15 -4 17 4 32 11 33
16 2 5 10 9 17 9 8 0 17 9 20 20 8 24 25 27 25 4z m240 -14 c0 -22 -5 -30 -17
-30 -16 0 -16 -2 -3 -11 11 -8 12 -12 3 -16 -7 -2 -13 -12 -14 -21 0 -11 -2
-12 -6 -4 -8 19 -23 14 -23 -8 0 -11 -7 -20 -15 -20 -21 0 -19 9 9 35 13 12
27 32 31 43 3 12 11 22 16 22 5 0 9 9 9 20 0 11 2 20 5 20 3 0 5 -13 5 -30z
m30 20 c0 -5 -4 -10 -10 -10 -5 0 -10 5 -10 10 0 6 5 10 10 10 6 0 10 -4 10
-10z m-492 -17 c-10 -2 -15 -10 -11 -19 3 -8 -1 -14 -11 -14 -9 0 -16 6 -16
14 0 15 16 25 40 24 11 0 10 -2 -2 -5z m62 -48 c0 -8 -7 -15 -15 -15 -26 0
-18 20 13 29 1 1 2 -6 2 -14z m-50 -5 c0 -5 -4 -10 -10 -10 -5 0 -10 5 -10 10
0 6 5 10 10 10 6 0 10 -4 10 -10z m-216 -16 c13 -5 16 -22 16 -80 l0 -74 -27
1 c-17 1 -21 3 -10 6 14 4 17 16 17 74 l0 69 -1622 3 -1623 2 1617 3 c889 1
1623 -1 1632 -4z m696 -39 c0 -8 -4 -15 -10 -15 -5 0 -10 7 -10 15 0 8 5 15
10 15 6 0 10 -7 10 -15z m-97 -29 c3 -7 1 -19 -4 -27 -7 -11 -11 -11 -22 5 -9
12 -20 17 -30 13 -11 -4 -14 -2 -11 8 10 25 58 26 67 1z m57 4 c0 -5 -7 -10
-15 -10 -8 0 -15 5 -15 10 0 6 7 10 15 10 8 0 15 -4 15 -10z m40 -26 c0 -2 -8
-12 -18 -22 -15 -15 -20 -16 -31 -4 -11 11 -10 13 5 10 13 -2 19 3 18 14 -1
10 4 14 12 11 8 -3 14 -7 14 -9z m-192 -35 c3 -11 2 -11 -7 1 -10 13 -12 13
-20 0 -6 -8 -13 -11 -18 -7 -8 9 17 28 31 24 6 -2 11 -10 14 -18z m122 1 c0
-5 -4 -10 -10 -10 -5 0 -10 5 -10 10 0 6 5 10 10 10 6 0 10 -4 10 -10z m-3807
-22 c-2 -5 -13 -8 -24 -8 -10 0 -19 3 -19 8 0 4 11 7 24 7 13 0 22 -3 19 -7z
m3580 -5 c-7 -2 -19 -2 -25 0 -7 3 -2 5 12 5 14 0 19 -2 13 -5z m-207 -48 c-8
-30 -26 -33 -26 -5 0 11 5 20 10 20 6 0 10 8 11 18 0 11 2 12 6 4 3 -7 2 -24
-1 -37z m134 35 c0 -5 -25 -10 -55 -10 -30 0 -55 5 -55 10 0 6 25 10 55 10 30
0 55 -4 55 -10z m0 -30 c0 -5 -4 -10 -10 -10 -5 0 -10 5 -10 10 0 6 5 10 10
10 6 0 10 -4 10 -10z m70 0 c0 -5 -7 -10 -15 -10 -8 0 -15 5 -15 10 0 6 7 10
15 10 8 0 15 -4 15 -10z m-180 -35 c0 -14 -4 -25 -10 -25 -5 0 -10 11 -10 25
0 14 5 25 10 25 6 0 10 -11 10 -25z m140 15 c0 -5 -4 -10 -10 -10 -5 0 -10 -7
-10 -17 0 -9 -3 -14 -6 -10 -8 8 5 47 17 47 5 0 9 -4 9 -10z m87 -6 c14 -13
14 -17 2 -25 -8 -5 -21 -8 -29 -8 -11 1 -10 3 3 6 21 5 23 23 2 23 -8 0 -15 5
-15 10 0 15 19 12 37 -6z m-147 -14 c0 -5 -4 -10 -10 -10 -5 0 -10 5 -10 10 0
6 5 10 10 10 6 0 10 -4 10 -10z m-100 -40 c0 -6 -9 -2 -20 7 -11 10 -20 19
-20 21 0 1 9 -2 20 -8 11 -6 20 -15 20 -20z m197 24 c-3 -3 -12 -4 -19 -1 -8
3 -5 6 6 6 11 1 17 -2 13 -5z m-237 -23 c0 -5 -7 -11 -15 -15 -8 -3 -15 -9
-15 -15 0 -16 40 -20 55 -4 8 8 15 10 15 4 0 -5 -8 -15 -17 -21 -13 -8 -14
-13 -5 -16 21 -9 13 -21 -14 -21 -14 0 -22 2 -16 6 6 4 4 11 -4 19 -12 10 -14
10 -14 -3 0 -21 -12 -19 -33 5 -11 13 -13 20 -4 20 6 0 21 11 32 25 21 25 35
32 35 16z m-324 -65 c11 -11 14 -45 14 -141 0 -96 -3 -130 -14 -141 -17 -16
-46 -19 -46 -4 0 6 9 10 20 10 19 0 20 7 20 135 l0 135 -1450 0 c-960 0 -1450
3 -1450 10 0 7 489 10 1446 10 1239 0 1447 -2 1460 -14z m214 4 c0 -5 -6 -10
-12 -10 -9 0 -8 -4 2 -11 13 -9 13 -10 0 -6 -21 5 -26 37 -6 37 9 0 16 -4 16
-10z m0 -180 c0 -11 -7 -20 -15 -20 -15 0 -21 21 -8 33 12 13 23 7 23 -13z
m65 4 c-17 -17 -31 -18 -38 -1 -3 8 6 12 24 13 23 1 25 -1 14 -12z m278 9 c-7
-2 -19 -2 -25 0 -7 3 -2 5 12 5 14 0 19 -2 13 -5z m47 -8 c0 -8 -7 -15 -15
-15 -26 0 -18 20 13 29 1 1 2 -6 2 -14z m40 -6 c0 -5 -4 -9 -10 -9 -5 0 -10 7
-10 16 0 8 5 12 10 9 6 -3 10 -10 10 -16z m93 14 c-7 -2 -21 -2 -30 0 -10 3
-4 5 12 5 17 0 24 -2 18 -5z m174 1 c-3 -3 -12 -4 -19 -1 -8 3 -5 6 6 6 11 1
17 -2 13 -5z m97 0 c9 -3 16 -12 16 -20 0 -11 -7 -13 -27 -8 -35 8 -37 10 -28
23 7 12 17 14 39 5z m-456 -31 c-10 -2 -28 -2 -40 0 -13 2 -5 4 17 4 22 1 32
-1 23 -4z m-288 -13 c0 -5 -4 -10 -10 -10 -5 0 -10 -4 -10 -10 0 -5 7 -10 15
-10 8 0 15 5 15 10 0 6 5 10 10 10 18 0 10 -19 -11 -25 -26 -8 -42 6 -33 28 7
18 24 23 24 7z m85 -10 c7 0 15 6 18 13 2 6 8 9 12 5 9 -8 -18 -38 -34 -38 -6
0 -11 2 -11 4 0 2 -2 10 -3 18 -2 7 -2 10 0 6 3 -5 11 -8 18 -8z m115 10 c0
-5 -7 -10 -15 -10 -8 0 -15 5 -15 10 0 6 7 10 15 10 8 0 15 -4 15 -10z m-250
-25 c0 -8 -4 -15 -10 -15 -5 0 -10 7 -10 15 0 8 5 15 10 15 6 0 10 -7 10 -15z
m-870 -55 c0 -5 -7 -10 -15 -10 -8 0 -15 5 -15 10 0 6 7 10 15 10 8 0 15 -4
15 -10z m200 1 c0 -12 -39 -25 -47 -17 -4 3 1 6 10 6 10 0 17 5 17 10 0 6 5
10 10 10 6 0 10 -4 10 -9z m40 -1 c0 -5 -7 -10 -15 -10 -8 0 -15 5 -15 10 0 6
7 10 15 10 8 0 15 -4 15 -10z m130 0 c0 -5 -4 -10 -10 -10 -5 0 -10 5 -10 10
0 6 5 10 10 10 6 0 10 -4 10 -10z m100 0 c0 -5 -7 -10 -15 -10 -8 0 -15 5 -15
10 0 6 7 10 15 10 8 0 15 -4 15 -10z m40 -5 c0 -8 -7 -15 -15 -15 -9 0 -12 6
-9 15 4 8 10 15 15 15 5 0 9 -7 9 -15z m40 0 c0 -8 -7 -15 -15 -15 -13 0 -14
3 -3 15 16 18 18 18 18 0z m1470 -12 c-8 -3 -30 -21 -48 -39 -18 -19 -41 -34
-50 -33 -13 0 -14 2 -2 6 8 3 30 21 49 40 19 18 41 33 50 32 14 0 14 -1 1 -6z
m-1562 -10 c-10 -2 -26 -2 -35 0 -10 3 -2 5 17 5 19 0 27 -2 18 -5z m-480 -15
c-6 -18 -28 -21 -28 -4 0 9 7 16 16 16 9 0 14 -5 12 -12z m102 3 c0 -5 8 -12
18 -14 10 -3 6 -5 -10 -6 -19 -1 -28 4 -28 14 0 8 5 15 10 15 6 0 10 -4 10 -9z
m90 -1 c0 -5 -11 -10 -25 -10 -14 0 -25 5 -25 10 0 6 11 10 25 10 14 0 25 -4
25 -10z m95 -10 c7 0 16 5 18 10 3 6 4 5 3 -2 -2 -7 -11 -13 -21 -13 -10 0
-19 6 -21 13 -1 7 0 8 3 2 2 -5 11 -10 18 -10z m105 10 c0 -5 -7 -10 -15 -10
-8 0 -15 5 -15 10 0 6 7 10 15 10 8 0 15 -4 15 -10z m1130 1 c0 -4 28 -11 61
-14 34 -3 65 -10 68 -15 3 -5 16 -12 29 -16 12 -4 22 -14 22 -22 0 -8 7 -14
15 -14 18 0 95 -73 95 -89 0 -6 7 -14 15 -17 8 -4 18 -24 21 -45 4 -21 10 -39
15 -39 5 0 9 -63 9 -140 0 -87 -4 -140 -10 -140 -5 0 -10 -13 -10 -29 0 -16
-6 -36 -14 -43 -7 -8 -16 -23 -20 -35 -4 -12 -13 -24 -21 -27 -8 -3 -15 -12
-15 -20 0 -8 -10 -18 -22 -22 -12 -3 -28 -13 -36 -20 -7 -8 -19 -14 -27 -14
-7 0 -15 -8 -18 -19 -3 -13 -18 -20 -51 -25 -25 -4 -46 -11 -46 -17 0 -5 -38
-9 -85 -9 -47 0 -85 4 -85 8 0 5 -65 15 -145 22 -103 9 -145 16 -145 25 0 9
-28 15 -90 20 -49 4 -90 11 -90 15 0 4 -43 11 -95 15 -52 4 -95 10 -95 15 0 4
-63 13 -140 20 -77 7 -140 16 -140 20 0 4 -40 11 -90 14 -49 4 -90 11 -90 15
0 4 -65 14 -145 21 -101 9 -145 17 -145 26 0 8 -29 14 -90 19 -49 4 -90 11
-90 15 0 4 -43 11 -95 15 -52 4 -95 11 -95 16 0 5 -18 9 -40 9 -58 0 -100 43
-100 105 0 25 3 45 8 45 4 0 13 13 20 29 14 32 24 34 175 47 42 4 77 10 77 14
0 5 43 11 95 15 67 5 95 11 95 20 0 9 27 15 90 20 50 4 90 11 90 16 0 5 7 9
15 9 13 0 15 -23 15 -150 l0 -150 85 0 85 0 0 160 0 160 45 0 c25 0 45 4 45 9
0 5 41 13 90 17 50 3 90 10 90 15 0 5 18 9 40 9 l40 0 0 -185 0 -185 85 0 85
0 0 199 c0 230 -15 205 133 217 60 5 87 11 87 19 0 8 18 14 50 17 l50 3 0
-227 0 -228 95 0 95 0 0 245 0 245 40 0 c22 0 40 5 40 10 0 6 16 10 35 10 19
0 35 -4 35 -9z m460 -1 c0 -5 -4 -10 -10 -10 -5 0 -10 5 -10 10 0 6 5 10 10
10 6 0 10 -4 10 -10z m350 0 c0 -5 7 -10 15 -10 8 0 15 -7 15 -15 0 -8 7 -15
15 -15 11 0 15 -11 15 -40 0 -29 -4 -40 -15 -40 -8 0 -15 -7 -15 -15 0 -8 -7
-15 -15 -15 -7 0 -18 -7 -23 -15 -9 -17 -98 -35 -169 -35 -24 0 -43 -4 -43
-10 0 -5 -13 -10 -30 -10 -16 0 -30 3 -30 6 0 3 32 36 70 74 39 38 70 74 70
79 0 6 6 11 13 11 7 0 20 9 30 20 9 11 26 20 37 20 11 0 20 5 20 10 0 6 9 10
20 10 11 0 20 -4 20 -10z m-2124 -25 c-16 -17 -36 -20 -36 -6 0 8 17 16 43 20
5 0 2 -6 -7 -14z m-156 -5 c0 -5 -4 -10 -10 -10 -5 0 -10 5 -10 10 0 6 5 10
10 10 6 0 10 -4 10 -10z m110 0 c0 -5 -4 -10 -10 -10 -5 0 -10 5 -10 10 0 6 5
10 10 10 6 0 10 -4 10 -10z m-190 -29 c0 -15 -10 -21 -41 -26 -22 -4 -43 -4
-46 -1 -4 3 5 6 19 6 17 0 27 7 31 20 7 26 37 26 37 1z m133 12 c-7 -2 -21 -2
-30 0 -10 3 -4 5 12 5 17 0 24 -2 18 -5z m-83 -18 c0 -8 -7 -15 -15 -15 -8 0
-15 7 -15 15 0 8 7 15 15 15 8 0 15 -7 15 -15z m-552 -36 c13 -11 38 -21 56
-22 22 -1 32 -6 29 -14 -6 -15 -43 -18 -43 -4 0 5 -11 12 -25 15 -14 4 -25 11
-25 17 0 5 -10 14 -22 19 -15 5 -17 9 -7 9 8 1 25 -8 37 -20z m322 11 c0 -5
-10 -10 -22 -10 -19 0 -20 2 -8 10 19 13 30 13 30 0z m40 0 c0 -5 -8 -10 -17
-10 -15 0 -16 2 -3 10 19 12 20 12 20 0z m-380 -20 c0 -5 -7 -10 -15 -10 -8 0
-15 5 -15 10 0 6 7 10 15 10 8 0 15 -4 15 -10z m280 0 c0 -5 -11 -10 -25 -10
-14 0 -25 5 -25 10 0 6 11 10 25 10 14 0 25 -4 25 -10z m-83 -16 c-3 -3 -12
-4 -19 -1 -8 3 -5 6 6 6 11 1 17 -2 13 -5z m-189 -46 c-7 -19 -38 -22 -38 -4
0 10 9 16 21 16 12 0 19 -5 17 -12z m-100 -53 c15 3 21 2 15 -1 -7 -3 -13 -13
-13 -23 0 -9 -8 -17 -17 -17 -14 0 -18 9 -19 36 -1 19 1 27 3 17 3 -12 11 -16
31 -12z m-1568 -50 c0 -8 -4 -15 -10 -15 -5 0 -10 7 -10 15 0 8 5 15 10 15 6
0 10 -7 10 -15z m6 -49 c14 -15 19 -36 8 -36 -10 0 -34 28 -34 39 0 15 9 14
26 -3z m1525 -9 c-10 -9 -11 -8 -5 6 3 10 9 15 12 12 3 -3 0 -11 -7 -18z
m3224 -21 c9 -9 15 -34 15 -65 0 -41 -4 -51 -20 -56 -11 -3 -20 -11 -20 -16 0
-5 -22 -9 -50 -9 -27 0 -50 5 -50 10 0 6 -13 10 -30 10 -17 0 -30 -5 -30 -12
0 -9 -3 -9 -9 1 -6 9 -35 16 -85 19 -42 2 -76 9 -76 13 0 5 -19 9 -42 9 -67 0
-88 9 -88 36 0 21 5 24 35 24 19 0 35 4 35 9 0 5 50 12 110 16 61 3 110 11
110 15 0 10 96 19 148 14 18 -1 39 -9 47 -18z m-4735 -36 c0 -11 -4 -20 -10
-20 -5 0 -10 9 -10 20 0 11 5 20 10 20 6 0 10 -9 10 -20z m1507 -42 c-2 -13
-4 -3 -4 22 0 25 2 35 4 23 2 -13 2 -33 0 -45z m-1483 -23 c-4 -8 -10 -15 -15
-15 -5 0 -9 7 -9 15 0 8 7 15 15 15 9 0 12 -6 9 -15z m51 -15 c21 0 25 -36 4
-37 -11 -1 -19 4 -19 12 0 7 -2 19 -3 27 -2 7 -2 10 0 6 3 -5 11 -8 18 -8z
m-29 -48 c-4 -3 -11 0 -16 8 -15 24 -11 33 6 15 9 -9 13 -19 10 -23z m1485
-22 c5 0 9 -18 9 -40 0 -41 -19 -57 -21 -17 -1 21 -1 21 -9 -3 -7 -21 -8 -22
-9 -4 -1 11 4 25 11 32 8 8 8 15 -1 25 -6 9 -8 22 -4 33 7 17 8 17 11 -3 2
-13 8 -23 13 -23z m-1437 -36 c-4 -25 -2 -34 13 -43 10 -6 13 -11 8 -11 -17 0
-35 22 -35 42 0 10 -4 18 -9 18 -5 0 -11 6 -14 13 -3 7 4 12 19 12 21 0 23 -3
18 -31z m82 12 c16 -17 19 -46 4 -46 -5 0 -10 7 -10 15 0 8 -4 15 -10 15 -5 0
-10 7 -10 15 0 19 7 19 26 1z m54 -6 c22 -22 26 -40 10 -40 -5 0 -10 7 -10 15
0 9 -7 18 -15 21 -8 4 -15 10 -15 15 0 14 8 11 30 -11z m-107 -20 c-3 -11 -9
-20 -14 -20 -14 0 -11 28 4 33 6 3 13 6 14 6 0 1 -1 -8 -4 -19z m97 -10 c0
-11 7 -23 15 -26 17 -7 20 -24 4 -24 -17 0 -39 27 -39 49 0 12 5 21 10 21 6 0
10 -9 10 -20z m1350 9 c0 -17 47 -58 75 -65 14 -3 25 -12 25 -20 0 -19 -19
-18 -26 1 -4 8 -11 15 -18 15 -6 0 -19 9 -29 20 -10 12 -23 17 -34 14 -15 -5
-16 -4 -3 5 10 7 11 11 3 11 -7 0 -13 7 -13 15 0 8 5 15 10 15 6 0 10 -5 10
-11z m2900 -51 c0 -4 7 -8 15 -8 9 0 18 -6 21 -13 3 -8 20 -20 39 -27 33 -13
35 -16 35 -62 0 -36 -4 -48 -15 -48 -9 0 -18 -7 -21 -15 -7 -16 -94 -22 -94
-7 0 5 -16 14 -35 22 -19 8 -35 18 -35 23 0 5 -31 41 -70 79 -38 38 -70 73
-70 76 0 4 52 3 115 -2 63 -5 115 -13 115 -18z m-4300 2 c0 -5 -2 -10 -4 -10
-2 0 -12 -3 -22 -7 -16 -6 -17 -5 -4 10 17 19 30 22 30 7z m1370 0 c0 -5 -7
-10 -15 -10 -8 0 -15 5 -15 10 0 6 7 10 15 10 8 0 15 -4 15 -10z m-1329 -48
c-11 -4 -11 -6 0 -13 7 -4 11 -11 7 -14 -3 -4 -15 2 -26 13 -19 19 -19 19 7
19 14 0 20 -2 12 -5z m73 0 c7 -12 -12 -38 -21 -28 -4 5 -2 11 6 14 11 4 11 6
0 13 -9 6 -10 9 -2 9 6 0 14 -4 17 -8z m1356 -2 c0 -5 -7 -10 -15 -10 -8 0
-15 5 -15 10 0 6 7 10 15 10 8 0 15 -4 15 -10z m70 0 c0 -5 -7 -7 -15 -4 -8 4
-15 8 -15 10 0 2 7 4 15 4 8 0 15 -4 15 -10z m-1460 -15 c0 -9 6 -18 14 -21 8
-3 17 -12 20 -19 6 -16 -21 -9 -41 11 -15 15 -17 44 -3 44 6 0 10 -7 10 -15z
m1558 5 c6 0 12 -4 12 -10 0 -16 -40 -11 -58 7 -16 16 -15 16 8 10 14 -4 31
-7 38 -7z m72 -10 c0 -5 -7 -10 -15 -10 -8 0 -15 5 -15 10 0 6 7 10 15 10 8 0
15 -4 15 -10z m-190 -20 c13 -9 13 -11 0 -20 -24 -16 -40 -12 -40 10 0 22 16
26 40 10z m27 -12 c-3 -8 -6 -5 -6 6 -1 11 2 17 5 13 3 -3 4 -12 1 -19z m352
6 c11 -9 -12 -16 -61 -18 -29 -2 -47 -1 -40 1 19 7 14 21 -10 26 -13 2 6 2 42
-1 36 -3 67 -6 69 -8z m-429 -4 c0 -5 -7 -10 -15 -10 -8 0 -15 5 -15 10 0 6 7
10 15 10 8 0 15 -4 15 -10z m126 -20 c8 0 14 -9 14 -20 0 -13 -5 -18 -15 -14
-8 4 -15 9 -15 13 0 3 -2 15 -4 26 -2 11 -1 14 1 8 3 -7 11 -13 19 -13z m154
21 c0 -11 -83 -26 -102 -18 -7 3 4 6 25 6 20 1 37 6 37 11 0 6 9 10 20 10 11
0 20 -4 20 -9z m-1553 -57 c-2 -2 -18 -1 -35 2 -35 7 -44 34 -12 34 11 0 20
-7 20 -15 0 -24 20 -17 21 8 2 22 2 22 6 -1 3 -13 3 -26 0 -28z m1792 24 c-1
-17 -2 -19 -6 -5 -2 9 -9 17 -14 17 -5 0 -9 -8 -9 -17 0 -13 -8 -18 -28 -19
-15 -1 -21 1 -14 3 6 3 12 11 12 18 0 13 17 21 48 24 6 0 11 -9 11 -21z m-519
-3 c0 -8 -7 -15 -15 -15 -8 0 -15 7 -15 15 0 8 7 15 15 15 8 0 15 -7 15 -15z
m280 1 c0 -8 6 -17 13 -19 6 -3 2 -6 -10 -6 -17 -1 -23 5 -23 19 0 11 5 20 10
20 6 0 10 -6 10 -14z m290 -1 c0 -8 -7 -15 -15 -15 -8 0 -15 7 -15 15 0 8 7
15 15 15 8 0 15 -7 15 -15z m40 0 c0 -9 9 -15 22 -15 12 0 19 -3 15 -6 -11
-11 -67 7 -67 22 0 8 7 14 15 14 8 0 15 -7 15 -15z m169 -31 c2 -2 -5 -4 -17
-4 -12 0 -22 -4 -22 -10 0 -16 -19 -12 -42 10 l-22 20 50 -6 c27 -4 51 -8 53
-10z m-2002 0 c-3 -3 -12 -4 -19 -1 -8 3 -5 6 6 6 11 1 17 -2 13 -5z m83 -15
c0 -14 -37 -10 -43 4 -4 10 2 13 19 9 13 -2 24 -8 24 -13z m120 1 c0 -5 -4
-10 -10 -10 -5 0 -10 5 -10 10 0 6 5 10 10 10 6 0 10 -4 10 -10z"/>
<path d="M4198 7202 c-32 -2 -58 -7 -58 -11 0 -5 -14 -11 -31 -15 -16 -3 -37
-13 -45 -21 -9 -8 -24 -15 -35 -15 -11 0 -22 -8 -26 -17 -3 -10 -14 -26 -25
-36 -22 -21 -24 -47 -3 -47 8 0 20 -9 27 -20 7 -11 19 -20 26 -20 7 0 15 -7
18 -15 12 -31 45 -28 77 6 l30 34 119 0 c103 0 121 -2 129 -17 6 -10 14 -18
19 -18 15 0 47 -35 55 -59 3 -12 10 -21 15 -21 4 0 11 -11 14 -24 6 -24 9 -24
118 -28 78 -2 113 -7 116 -15 2 -7 9 -13 16 -13 20 0 66 -50 66 -71 0 -11 5
-19 10 -19 6 0 10 -7 10 -15 0 -8 5 -15 10 -15 6 0 10 -13 10 -30 0 -16 5 -30
10 -30 6 0 10 -9 10 -20 0 -11 -4 -20 -10 -20 -5 0 -10 -11 -10 -25 0 -16 6
-25 15 -25 8 0 15 -4 15 -9 0 -5 25 -12 55 -16 30 -3 55 -11 55 -16 0 -5 7 -9
15 -9 10 0 15 10 15 30 0 17 5 30 10 30 6 0 10 25 10 55 0 30 -4 55 -9 55 -5
0 -12 25 -16 55 -3 30 -11 55 -16 55 -5 0 -9 7 -9 15 0 8 -4 15 -10 15 -5 0
-10 6 -10 13 0 7 -9 20 -20 30 -11 9 -20 23 -20 30 0 8 -11 20 -25 27 -14 7
-25 19 -25 26 0 6 -11 15 -25 18 -14 4 -25 10 -25 15 0 5 -13 12 -30 16 -16 4
-30 10 -30 15 0 5 -20 11 -45 14 -25 3 -65 9 -90 12 -25 3 -45 10 -45 16 0 6
-11 21 -25 34 -14 13 -25 28 -25 34 0 5 -6 10 -13 10 -18 0 -67 23 -67 32 0 3
-15 10 -32 13 -18 4 -35 11 -38 15 -6 9 -125 16 -202 12z"/>
<path d="M4200 6675 c0 -48 20 -135 31 -135 5 0 9 -5 9 -11 0 -22 91 -97 126
-103 19 -4 34 -13 34 -20 0 -19 23 -26 86 -26 l54 0 0 80 0 80 -35 0 c-19 0
-35 4 -35 9 0 5 -13 12 -30 16 -20 4 -30 13 -30 25 0 11 -7 23 -16 28 -8 5
-18 27 -21 50 l-6 42 -83 0 -84 0 0 -35z"/>
</g>
</svg>
